<?xml version="1.0" standalone="no"?>
<!DOCTYPE svg PUBLIC "-//W3C//DTD SVG 1.1//EN" "http://www.w3.org/Graphics/SVG/1.1/DTD/svg11.dtd" >
<svg xmlns="http://www.w3.org/2000/svg" xmlns:xlink="http://www.w3.org/1999/xlink" version="1.1">
<metadata>
Created by FontForge 20201107 at Thu Feb 18 18:03:51 2016
 By Unknown
Created by Fabian De Smet
</metadata>
<defs>
<font id="Butler" horiz-adv-x="693" >
  <font-face 
    font-family="Butler"
    font-weight="400"
    font-stretch="normal"
    units-per-em="1000"
    panose-1="2 7 8 3 8 7 6 2 3 3"
    ascent="735"
    descent="-265"
    x-height="462"
    cap-height="704"
    bbox="-146 -265.07 1055 979"
    underline-thickness="50"
    underline-position="-100"
    stemh="18"
    stemv="138"
    unicode-range="U+0020-FB02"
  />
<missing-glyph horiz-adv-x="507" 
d="M-1 704h508v-704h-508v704zM223 352l-174 268v-535zM86 654l167 -256l167 256h-334zM253 307l-167 -257h334zM283 352l174 -267v535z" />
    <glyph glyph-name="f_i" unicode="fi" horiz-adv-x="524" 
d="M486 8v-8h-168v8c38 11 39 29 39 80v296c0 35 -10 65 -50 65h-137v-364c0 -55 13 -71 48 -77v-8h-175v8c38 8 40 26 40 77v364h-64l-2 13h66v11c0 210 82 272 224 272c61 0 118 -28 129 -82c4 -20 4 -44 -8 -60c-18 -23 -52 -27 -74 -10c-24 19 -28 51 -9 75
c9 11 21 20 34 19c23 -1 -4 45 -72 45c-42 0 -137 -9 -137 -246v-24h138h137v-374c0 -55 5 -71 41 -80z" />
    <glyph glyph-name="f_l" unicode="fl" horiz-adv-x="519" 
d="M496 13v-13h-168v13c38 11 39 24 39 75v558c0 41 -25 63 -69 70c-47 8 -137 5 -137 -234v-20h107l-2 -13h-105v-364c0 -55 13 -66 49 -73v-12h-176v12c38 9 40 22 40 73v364h-65l-1 13h66v40c0 172 68 243 169 243c41 0 74 -9 100 -25l112 26v-658c0 -55 5 -66 41 -75z
" />
    <glyph glyph-name=".notdef" horiz-adv-x="507" 
d="M-1 704h508v-704h-508v704zM223 352l-174 268v-535zM86 654l167 -256l167 256h-334zM253 307l-167 -257h334zM283 352l174 -267v535z" />
    <glyph glyph-name="space" unicode=" " horiz-adv-x="250" 
 />
    <glyph glyph-name="exclam" unicode="!" horiz-adv-x="294" 
d="M172 189h-48l-22 556h93zM206 50c0 33 -26 59 -59 59c-32 0 -59 -26 -59 -59c0 -32 27 -59 59 -59c33 0 59 27 59 59z" />
    <glyph glyph-name="quotedbl" unicode="&#x22;" horiz-adv-x="474" 
d="M313 376l-25 328h96l-24 -328h-47zM127 376l-26 328h96l-24 -328h-46z" />
    <glyph glyph-name="numbersign" unicode="#" horiz-adv-x="702" 
d="M447 478h-160l-40 -178h159zM653 478h-143l-41 -178h121v-59h-134l-55 -241h-63l55 241h-160l-55 -241h-63l55 241h-130v59h144l40 178h-121v59h134l49 209h63l-48 -209h159l49 209h63l-49 -209h130v-59z" />
    <glyph glyph-name="dollar" unicode="$" horiz-adv-x="538" 
d="M276 4c169 6 165 176 59 251l-59 38v-289zM248 436v264c-108 -2 -189 -140 -39 -238zM374 354c134 -89 156 -199 104 -282c-21 -24 -64 -78 -202 -81v-121h-28v121c-140 7 -206 56 -206 56v192h8c10 -115 53 -219 198 -234v307l-79 51c-95 63 -186 153 -109 272
c0 0 50 77 188 78v123h28v-123c128 -6 201 -47 201 -47v-169h-9c-10 92 -49 193 -192 202v-281z" />
    <glyph glyph-name="percent" unicode="%" horiz-adv-x="975" 
d="M709 37c45 0 70 24 70 163c0 140 -27 170 -70 170c-45 0 -71 -30 -71 -170c0 -139 27 -163 71 -163zM709 383c109 0 134 -97 134 -183c0 -85 -25 -176 -134 -176c-110 0 -134 91 -134 176c0 86 24 183 134 183zM205 495c0 -139 27 -163 70 -163c46 0 71 24 71 163
c0 140 -28 170 -71 170c-44 0 -70 -30 -70 -170zM409 495c0 -85 -24 -176 -134 -176s-134 91 -134 176c0 86 24 183 134 183s134 -97 134 -183zM746 704l-456 -704h-53l456 704h53z" />
    <glyph glyph-name="ampersand" unicode="&#x26;" horiz-adv-x="788" 
d="M298 720c-61 -23 -73 -110 -25 -181l71 -103c133 84 118 194 69 255c-29 30 -75 44 -115 29zM188 95c62 -74 200 -72 251 45l-166 240l-56 -35c-58 -40 -115 -148 -29 -250zM721 101h13c-1 -73 -56 -106 -102 -110c0 0 -86 -8 -125 50l-58 87
c-35 -114 -236 -204 -341 -70c-104 133 21 253 101 299l56 34l-50 74c-99 134 -46 256 66 276c65 11 114 -7 144 -41c43 -49 81 -172 -73 -276l134 -198c38 94 93 112 119 118c20 4 45 3 62 -11c19 -15 26 -48 5 -71c-18 -21 -50 -24 -72 -6c-12 10 -16 20 -17 34
c0 22 -62 6 -89 -75l79 -114c32 -46 80 -47 80 -47c31 0 63 12 68 47z" />
    <glyph glyph-name="quotesingle" unicode="'" horiz-adv-x="242" 
d="M100 376l-25 328h96l-24 -328h-47z" />
    <glyph glyph-name="parenleft" unicode="(" horiz-adv-x="320" 
d="M308 746l12 -11c-157 -186 -152 -430 -152 -483c0 -54 -5 -305 150 -445l-12 -12c-118 67 -227 263 -227 460c0 196 110 408 229 491z" />
    <glyph glyph-name="parenright" unicode=")" horiz-adv-x="321" 
d="M-3 735l12 11c119 -83 229 -295 229 -491c0 -197 -109 -393 -227 -460l-12 12c155 140 150 391 150 445c0 53 5 297 -152 483z" />
    <glyph glyph-name="asterisk" unicode="*" horiz-adv-x="544" 
d="M478 525l-183 -34l129 -134l-64 -47l-89 164l-89 -164l-63 47l129 134l-184 34l25 75l167 -81l-25 185h80l-25 -185l168 81z" />
    <glyph glyph-name="plus" unicode="+" horiz-adv-x="715" 
d="M657 344v-68h-267v-276h-67v276h-267v68h267v275h67v-275h267z" />
    <glyph glyph-name="comma" unicode="," horiz-adv-x="227" 
d="M78 -126l-6 8c67 48 61 109 45 111c-14 2 -27 6 -39 17c-23 23 -24 60 -1 83s60 23 83 0c35 -35 18 -106 -9 -150c-13 -20 -29 -46 -73 -69z" />
    <glyph glyph-name="hyphen" unicode="-" horiz-adv-x="444" 
d="M379 220h-315v68h315v-68z" />
    <glyph glyph-name="period" unicode="." horiz-adv-x="222" 
d="M114 -5c-33 0 -59 26 -59 59s26 60 59 60c32 0 59 -27 59 -60s-27 -59 -59 -59z" />
    <glyph glyph-name="slash" unicode="/" horiz-adv-x="412" 
d="M393 725l-308 -746h-71l308 746h71z" />
    <glyph glyph-name="zero" unicode="0" horiz-adv-x="609" 
d="M465 346c0 282 -75 354 -161 354c-90 0 -162 -72 -162 -354c0 -281 74 -342 162 -342c91 0 161 61 161 342zM573 346c0 -171 -49 -355 -269 -355c-221 0 -270 184 -270 355c0 172 49 367 270 367c220 0 269 -195 269 -367z" />
    <glyph glyph-name="one" unicode="1" horiz-adv-x="385" 
d="M324 12v-12h-246v12c41 0 82 4 82 78v477c0 73 -55 38 -92 9l-8 11l154 126h33v-623c0 -77 42 -78 77 -78z" />
    <glyph glyph-name="two" unicode="2" horiz-adv-x="476" 
d="M427 144h13l-40 -144h-362l221 332c201 303 -164 394 -204 190l-15 3c11 193 186 188 186 188c100 0 172 -76 172 -167c0 -66 -43 -123 -121 -228c-48 -65 -158 -231 -158 -231h215c34 0 71 17 93 57z" />
    <glyph glyph-name="three" unicode="3" horiz-adv-x="501" 
d="M53 48c-13 13 -18 37 -10 57c11 29 43 43 71 32c29 -11 43 -43 32 -72c-6 -14 -15 -24 -28 -28c-7 -2 22 -33 102 -33c102 0 150 65 141 179c-5 60 -45 157 -193 168v14c153 26 183 181 96 254c-63 55 -187 22 -204 -70l-15 2c11 162 168 162 184 162
c161 0 250 -220 61 -326c103 -29 159 -105 161 -177c6 -174 -136 -219 -230 -219c-83 0 -138 27 -168 57z" />
    <glyph glyph-name="four" unicode="4" horiz-adv-x="525" 
d="M294 256v333l-197 -292c-28 -41 -13 -41 14 -41h183zM490 203h-97v-82c0 -106 33 -108 75 -108v-13h-249v13c42 0 75 4 75 103v87h-267v15l328 490l38 -4v-448h97v-53z" />
    <glyph glyph-name="five" unicode="5" horiz-adv-x="535" 
d="M482 243c17 -179 -127 -252 -255 -252c-100 0 -149 43 -163 58c-13 14 -20 39 -13 59c10 30 43 45 73 35c29 -10 44 -43 34 -73c-5 -15 -17 -25 -29 -29c-12 -5 18 -37 98 -37c125 0 211 96 175 213c-24 81 -128 166 -349 119l60 368h346l-27 -93h-318l-31 -186
c254 58 387 -58 399 -182z" />
    <glyph glyph-name="six" unicode="6" horiz-adv-x="546" 
d="M403 200c0 150 -58 198 -115 198c-79 0 -140 -54 -140 -119c0 -191 40 -275 129 -275c75 0 126 41 126 196zM503 218c0 -155 -87 -227 -226 -227c-169 0 -235 128 -235 327c0 219 111 395 269 395c101 0 127 -50 134 -65c9 -16 6 -42 -7 -58c-19 -24 -54 -28 -78 -9
s-28 55 -9 78c9 11 22 21 36 19c7 -1 -6 19 -61 21c-101 6 -178 -98 -178 -379c27 77 90 113 168 113c142 0 187 -113 187 -215z" />
    <glyph glyph-name="seven" unicode="7" horiz-adv-x="551" 
d="M64 704h451l-51 -87c-133 -236 -164 -471 -164 -617h-105c12 189 65 359 255 617h-302c-48 0 -72 -17 -90 -58h-13z" />
    <glyph glyph-name="eight" unicode="8" horiz-adv-x="540" 
d="M394 551c-2 120 -68 149 -128 149c-59 0 -116 -41 -116 -114c0 -88 53 -133 160 -176c35 12 85 65 84 141zM278 -9c-148 0 -242 48 -242 168c0 86 83 162 169 190c-99 59 -134 112 -134 189c0 116 91 175 195 175c120 0 192 -61 192 -156c0 -59 -56 -137 -132 -156
c97 -48 180 -115 180 -212c0 -141 -99 -198 -228 -198zM256 320c-17 9 -21 11 -36 20c-34 -16 -106 -63 -106 -177c0 -111 75 -159 164 -159c57 0 142 32 141 142c-1 75 -59 119 -163 174z" />
    <glyph glyph-name="nine" unicode="9" horiz-adv-x="539" 
d="M137 506c0 -150 58 -198 115 -198c79 0 137 54 137 119c0 196 -37 273 -126 273c-75 0 -126 -48 -126 -194zM37 489c0 149 87 224 226 224c169 0 232 -118 232 -317c0 -253 -82 -405 -262 -405c-110 0 -135 55 -142 70c-9 17 -7 42 7 58c19 25 54 29 78 9
c24 -18 28 -54 9 -78c-10 -11 -22 -19 -36 -19c-8 0 15 -24 69 -27c128 -5 171 80 171 381c-29 -79 -87 -112 -165 -112c-142 0 -187 113 -187 216z" />
    <glyph glyph-name="colon" unicode=":" horiz-adv-x="226" 
d="M114 309c-34 0 -60 27 -60 60s26 60 60 60c32 0 60 -27 60 -60s-28 -60 -60 -60zM114 36c-34 0 -60 26 -60 59c0 34 26 61 60 61c32 0 60 -27 60 -61c0 -33 -28 -59 -60 -59z" />
    <glyph glyph-name="semicolon" unicode=";" horiz-adv-x="227" 
d="M114 309c-34 0 -60 27 -60 60s26 60 60 60c33 0 60 -27 60 -60s-27 -60 -60 -60zM74 -81c44 23 60 49 73 69c27 44 44 115 9 150c-23 23 -60 23 -83 0s-22 -60 1 -83c12 -11 25 -15 39 -17c16 -2 22 -63 -45 -111z" />
    <glyph glyph-name="less" unicode="&#x3c;" horiz-adv-x="600" 
d="M144 266l409 -213v-69l-507 260v43l507 260v-70z" />
    <glyph glyph-name="equal" unicode="=" horiz-adv-x="613" 
d="M567 349h-511v61h511v-61zM567 124h-511v61h511v-61z" />
    <glyph glyph-name="greater" unicode="&#x3e;" horiz-adv-x="600" 
d="M47 53l409 213l-409 211v70l507 -260v-43l-507 -260v69z" />
    <glyph glyph-name="question" unicode="?" horiz-adv-x="576" 
d="M329 58c0 -35 -29 -63 -64 -63s-63 28 -63 63s28 63 63 63s64 -28 64 -63zM335 334c-51 -21 -74 -69 -69 -129l-20 -3c-6 39 -12 103 52 157c45 38 92 81 82 199c-13 152 -131 172 -216 139c-42 -16 -39 -45 -26 -46c14 -2 24 -9 33 -21c16 -24 10 -57 -13 -74
s-57 -9 -74 14c-12 17 -10 37 -5 54c5 20 29 63 77 84c159 71 324 2 331 -146c7 -145 -96 -206 -152 -228z" />
    <glyph glyph-name="at" unicode="@" horiz-adv-x="875" 
d="M519 74c5 25 34 149 40 183c4 16 12 112 -54 112c-63 0 -120 -69 -137 -169c-21 -119 28 -160 76 -165c50 -4 75 39 75 39zM525 604c172 -7 320 -136 292 -364c-25 -215 -173 -249 -241 -249c-45 0 -66 24 -61 59c-10 -15 -51 -59 -123 -59c-82 0 -121 83 -114 165
c8 97 75 230 213 229c68 0 87 -38 88 -38c1 8 6 26 6 26l70 -1s-55 -263 -63 -299c-4 -20 -5 -51 30 -51c42 0 144 48 161 221c12 117 -24 298 -249 315c-233 18 -376 -158 -401 -361c0 0 -60 -350 295 -379c115 -9 201 45 214 56l8 -10s-71 -72 -236 -72
c-145 0 -390 81 -374 386c14 280 248 435 485 426z" />
    <glyph glyph-name="A" unicode="A" 
d="M175 226h252l-131 332zM673 13v-13h-228v13c54 0 44 57 21 113l-35 87h-259c-27 -80 -71 -204 68 -200v-13h-223v13c38 1 63 5 150 236l167 455h11c122 -294 246 -610 246 -610c33 -80 54 -79 82 -81z" />
    <glyph glyph-name="B" unicode="B" horiz-adv-x="595" 
d="M242 691h-44v-328h60c62 0 128 19 128 171c0 147 -83 157 -144 157zM541 179c0 -174 -131 -179 -304 -179h-200v9c43 0 58 43 58 111v466c0 62 -14 109 -58 109v9h200c139 0 257 -8 257 -171c0 -156 -147 -172 -167 -172c65 0 214 -13 214 -182zM429 183
c0 162 -97 167 -171 167h-60v-337h44c96 0 187 -2 187 170z" />
    <glyph glyph-name="C" unicode="C" horiz-adv-x="671" 
d="M603 207h13l12 -154c-74 -49 -134 -62 -241 -62c-207 0 -347 138 -347 361c0 225 140 361 347 361c103 0 178 -10 241 -61l-12 -155h-13c-28 165 -135 203 -216 203c-104 0 -219 -46 -219 -348c0 -307 118 -348 219 -348c81 0 203 51 216 203z" />
    <glyph glyph-name="D" unicode="D" horiz-adv-x="716" 
d="M536 350c0 323 -167 341 -277 341h-44v-678h44c108 0 277 5 277 337zM656 350c0 -302 -198 -350 -397 -350h-215v13c43 0 68 38 68 106v467c0 62 -24 105 -68 105v13h215c199 0 397 -61 397 -354z" />
    <glyph glyph-name="E" unicode="E" horiz-adv-x="596" 
d="M521 208h13v-208h-503v13c42 0 54 36 54 104v480c0 62 -10 94 -54 94v13h490v-180h-13c-12 165 -185 167 -266 167h-54v-329h65c27 0 133 0 138 101h13v-215h-13c-5 100 -113 101 -138 101h-65v-336h46c89 0 266 -5 287 195z" />
    <glyph glyph-name="F" unicode="F" horiz-adv-x="539" 
d="M29 704h495v-180h-13c-18 172 -193 167 -272 167h-53v-329h64c27 0 134 -1 143 101h13v-215h-13c-9 102 -117 100 -143 100h-64v-227c0 -98 31 -108 76 -108v-13h-233v13c43 0 54 36 54 104v480c0 62 -10 94 -54 94v13z" />
    <glyph glyph-name="G" unicode="G" horiz-adv-x="721" 
d="M454 280h235v-13c-58 0 -66 -10 -66 -234c-62 -24 -147 -42 -254 -42c-216 0 -330 162 -330 361s114 361 330 361c121 0 191 -16 253 -57l-9 -162h-21c-15 167 -104 206 -223 206c-114 0 -201 -73 -201 -348s89 -348 201 -348c117 0 165 26 165 109
c0 151 -14 154 -80 154v13z" />
    <glyph glyph-name="H" unicode="H" horiz-adv-x="601" 
d="M543 565v-429c0 -82 -3 -109 49 -123v-13h-177v13c27 10 29 34 29 123v193h-274v-193c0 -102 1 -113 29 -123v-13h-178v13c53 14 50 27 50 123v429c0 90 -2 117 -50 126v13h178v-13c-28 -9 -29 -29 -29 -126v-219h274v219c0 97 -1 117 -29 126v13h177v-13
c-47 -9 -49 -29 -49 -126z" />
    <glyph glyph-name="I" unicode="I" horiz-adv-x="344" 
d="M52 704h243v-13c-43 0 -70 -17 -70 -79v-505c0 -68 28 -94 70 -94v-13h-243v13c43 0 70 26 70 94v505c0 62 -26 79 -70 79v13z" />
    <glyph glyph-name="J" unicode="J" horiz-adv-x="395" 
d="M94 704h257v-12c-45 0 -80 -28 -80 -93v-417c0 -231 -104 -325 -267 -349l-4 12c86 31 168 107 168 324v308c0 191 -1 215 -74 215v12z" />
    <glyph glyph-name="K" unicode="K" horiz-adv-x="727" 
d="M713 13v-13h-107c-106 0 -129 30 -235 181c-57 82 -111 153 -111 153l126 153c57 67 173 202 24 204v13h275v-13c-73 0 -128 -24 -344 -301c117 -156 240 -321 240 -321c46 -59 118 -56 132 -56zM41 704h244v-13c-44 0 -78 -6 -78 -79v-507c0 -68 24 -92 67 -92v-13h-233
v13c42 0 64 24 64 92v507c0 62 -21 79 -64 79v13z" />
    <glyph glyph-name="L" unicode="L" horiz-adv-x="610" 
d="M538 217h13v-217h-499v13c43 0 55 38 55 106v488c0 61 -20 84 -63 84v13h238v-13c-43 0 -74 -17 -74 -89v-589h36c107 -1 277 0 294 204z" />
    <glyph glyph-name="M" unicode="M" horiz-adv-x="902" 
d="M798 117c0 -81 41 -104 84 -104v-13h-256v13c42 0 72 23 72 104v549l-242 -675h-12l-279 612v-354c0 -116 17 -236 128 -236v-13h-283v13c124 0 142 123 142 236v376c-38 65 -88 64 -112 66v13h199l260 -566l199 566h177v-13c-43 0 -77 -20 -77 -88v-486z" />
    <glyph glyph-name="N" unicode="N" horiz-adv-x="807" 
d="M496 704h286v-12c-145 0 -142 -144 -142 -237v-455h-32l-425 548v-298c0 -88 0 -237 131 -237v-13h-289v13c145 0 145 147 145 237v313l-41 53c-64 80 -93 74 -119 76v12h185l432 -558v309c0 93 1 237 -131 237v12z" />
    <glyph glyph-name="O" unicode="O" horiz-adv-x="738" 
d="M575 347c0 274 -91 353 -209 353c-119 0 -210 -79 -210 -353c0 -275 91 -343 210 -343c118 0 209 68 209 343zM691 347c0 -199 -105 -356 -325 -356s-325 157 -325 356c0 198 105 366 325 366s325 -168 325 -366z" />
    <glyph glyph-name="P" unicode="P" horiz-adv-x="580" 
d="M196 314h18c122 0 222 3 222 188c0 190 -105 189 -222 189h-18v-377zM196 301v-164c0 -120 36 -124 99 -124v-13h-264v13c49 0 66 26 66 121v463c0 69 -14 94 -64 94v13h181c199 0 331 -24 331 -202c0 -177 -132 -201 -331 -201h-18z" />
    <glyph glyph-name="Q" unicode="Q" horiz-adv-x="734" 
d="M575 347c0 274 -91 353 -209 353c-119 0 -210 -79 -210 -353c0 -275 91 -343 210 -343c118 0 209 68 209 343zM691 347c0 -199 -105 -356 -325 -356s-325 157 -325 356c0 198 105 366 325 366s325 -168 325 -366zM408 -75l151 -53c75 -25 118 7 143 25l9 -10l-75 -62
c-77 -60 -144 -41 -305 29l-77 34c-64 26 -126 -8 -149 -24l-10 11c146 121 313 50 313 50z" />
    <glyph glyph-name="R" unicode="R" horiz-adv-x="643" 
d="M419 513c0 182 -92 178 -199 178h-31v-355h31c113 0 199 -1 199 177zM637 13v-13h-76c-128 0 -113 1 -170 218c-28 105 -129 105 -155 105h-47v-219c0 -69 22 -91 64 -91v-13h-224v13c43 0 62 20 62 104v498c0 62 -18 76 -62 76v13h191c199 0 309 -24 309 -191
c0 -136 -78 -176 -186 -183c66 -3 135 -10 187 -229c18 -76 81 -86 107 -88z" />
    <glyph glyph-name="S" unicode="S" horiz-adv-x="564" 
d="M479 73c0 0 -43 -82 -198 -82c-163 0 -238 56 -238 56v192h12c11 -122 56 -235 226 -235c152 0 172 169 55 252l-166 107c-95 63 -186 154 -109 272c0 0 49 78 188 78c145 0 229 -47 229 -47v-168h-14c-9 98 -48 202 -215 202c-108 0 -190 -139 -39 -237l165 -109
c134 -88 156 -199 104 -281z" />
    <glyph glyph-name="T" unicode="T" horiz-adv-x="652" 
d="M19 704h612v-176h-13c-4 161 -171 163 -185 163h-59v-594c0 -66 31 -84 73 -84v-13h-244v13c42 0 72 18 72 84v594h-59c-31 0 -180 -2 -184 -163h-13v176z" />
    <glyph glyph-name="U" unicode="U" horiz-adv-x="716" 
d="M322 -9c-130 0 -232 86 -232 249v364c0 68 -27 87 -71 87v13h249v-13c-43 0 -79 -9 -79 -88v-372c0 -124 74 -195 182 -195c102 0 181 71 181 200v272c0 94 -2 183 -119 183v13h260v-13c-131 0 -128 -89 -128 -183v-272c0 -179 -120 -245 -243 -245z" />
    <glyph glyph-name="V" unicode="V" horiz-adv-x="743" 
d="M471 704h248v-13c-66 0 -91 0 -182 -239l-172 -452h-14c-123 294 -242 618 -242 618c-29 71 -61 73 -95 73v13h269v-13c-83 0 -62 -82 -60 -89l178 -477l124 329c31 93 90 237 -54 237v13z" />
    <glyph glyph-name="W" unicode="W" horiz-adv-x="1056" 
d="M785 704h254v-13c-73 0 -103 -24 -185 -239l-164 -452h-14l-166 445l-151 -445h-15l-236 613c-28 72 -62 78 -96 78v13h270v-13c-88 0 -63 -79 -61 -86l172 -468l110 327l-52 149c-28 72 -62 78 -96 78v13h269v-13c-89 0 -62 -79 -60 -86l164 -471l113 321
c29 96 84 236 -56 236v13z" />
    <glyph glyph-name="X" unicode="X" horiz-adv-x="731" 
d="M593 101c54 -83 80 -87 120 -89v-12h-257v12c68 9 19 86 2 113l-115 183l-55 -82c-61 -116 -131 -214 1 -214v-12h-258v12c52 0 92 -2 246 225l57 84c-75 110 -189 280 -189 280c-59 86 -87 90 -123 90v13h275v-13c-39 0 -68 -27 -11 -116l105 -165l51 76
c54 98 120 205 -14 205v13h278v-13c-61 0 -109 1 -253 -215l-53 -79c48 -69 193 -296 193 -296z" />
    <glyph glyph-name="Y" unicode="Y" horiz-adv-x="692" 
d="M421 704h257v-13c-43 0 -95 0 -206 -220l-76 -157v-202c0 -81 33 -99 75 -99v-13h-244v13c42 0 75 18 75 99v176c-147 260 -188 326 -188 326c-45 76 -72 76 -105 78v12h257v-12c-28 0 -91 2 -23 -113l147 -249l76 156c34 69 90 205 -45 205v13z" />
    <glyph glyph-name="Z" unicode="Z" horiz-adv-x="550" 
d="M159 13h23c210 0 286 80 312 220h17l-25 -233h-462l380 691h-49c-186 0 -269 -46 -297 -189h-18l18 202h457z" />
    <glyph glyph-name="bracketleft" unicode="[" horiz-adv-x="308" 
d="M113 735h180v-13c-54 0 -106 -1 -106 -86v-693c0 -73 54 -76 106 -76v-13h-180v881z" />
    <glyph glyph-name="backslash" unicode="\" horiz-adv-x="415" 
d="M324 -17l-309 750h69l309 -750h-69z" />
    <glyph glyph-name="bracketright" unicode="]" horiz-adv-x="309" 
d="M11 735h180v-881h-180v13c52 0 106 3 106 76v693c0 85 -52 86 -106 86v13z" />
    <glyph glyph-name="asciicircum" unicode="^" horiz-adv-x="564" 
d="M290 704l180 -328h-30l-162 206l-159 -206h-30l178 328h23z" />
    <glyph glyph-name="underscore" unicode="_" horiz-adv-x="560" 
d="M0 -76h560v-46h-560v46z" />
    <glyph glyph-name="grave" unicode="`" horiz-adv-x="326" 
d="M85 720l177 -163h-23l-235 138z" />
    <glyph glyph-name="a" unicode="a" horiz-adv-x="485" 
d="M297 247c-116 -28 -167 -72 -167 -132c0 -29 18 -79 79 -79c53 0 78 38 88 62v149zM432 38c0 0 23 0 30 26l12 -5c-6 -30 -40 -68 -92 -68c0 0 -79 -2 -85 84c-14 -48 -72 -84 -142 -84c0 0 -114 0 -114 103c0 100 85 122 256 166v58c0 103 -52 161 -132 124
c-39 -19 -45 -38 -39 -39c12 -2 23 -7 31 -18c15 -20 11 -50 -10 -65c-20 -16 -49 -12 -64 9c-11 15 -13 35 -5 49c7 15 24 45 78 74c43 22 92 19 92 19c109 0 139 -81 139 -200v-170s-1 -63 45 -63z" />
    <glyph glyph-name="b" unicode="b" horiz-adv-x="550" 
d="M406 213c0 157 -52 225 -139 225c-73 0 -115 -53 -115 -130v-151c0 -104 55 -153 122 -153s132 50 132 209zM511 227c0 -154 -101 -236 -234 -236c-59 0 -107 19 -140 50c-27 -28 -72 -52 -72 -36v637c0 34 -9 48 -51 56v13l138 27v-347c30 54 98 80 149 80
c133 0 210 -107 210 -244z" />
    <glyph glyph-name="c" unicode="c" horiz-adv-x="481" 
d="M437 128l11 -5c-11 -50 -62 -132 -185 -132c-112 0 -218 92 -218 239c0 123 90 241 243 241c98 0 128 -45 137 -61c8 -14 10 -33 1 -49c-13 -21 -43 -30 -64 -17c-23 13 -30 42 -17 63c7 12 18 20 28 21c9 2 -18 30 -85 30c-40 0 -150 -30 -150 -217
c0 -133 75 -188 146 -195c73 -6 135 41 153 82z" />
    <glyph glyph-name="d" unicode="d" horiz-adv-x="545" 
d="M395 138v175c0 97 -60 145 -121 145c-66 0 -133 -47 -133 -207c0 -159 51 -231 138 -231c66 0 116 48 116 118zM532 23v-13l-109 -18c-28 -5 -28 18 -28 18v55c-31 -51 -98 -74 -147 -74c-134 0 -211 106 -211 246c0 155 101 234 235 234c49 0 90 -14 123 -37v208
c0 35 -10 48 -51 56v13l137 27v-660c0 -49 11 -55 51 -55z" />
    <glyph glyph-name="e" unicode="e" horiz-adv-x="491" 
d="M130 253h234c0 146 -65 205 -113 205c-57 0 -121 -79 -121 -205zM422 123l12 -5c-11 -47 -66 -127 -184 -127c-125 0 -214 104 -214 236c0 148 94 244 218 244c116 0 196 -74 196 -231h-320c4 -135 64 -189 143 -197c60 -6 131 31 149 80z" />
    <glyph glyph-name="f" unicode="f" horiz-adv-x="301" 
d="M337 651c-10 -25 -39 -36 -63 -26c-25 10 -37 38 -26 63c5 13 15 22 26 24c10 3 -6 19 -35 19c-48 0 -74 -49 -74 -269h112l-3 -13h-109v-364c0 -52 12 -66 48 -73v-12h-175v12c38 8 39 25 39 73v364h-64l-1 13h65c0 218 47 282 161 282c46 0 82 -25 92 -38
c10 -14 14 -38 7 -55z" />
    <glyph glyph-name="g" unicode="g" horiz-adv-x="542" 
d="M353 318c0 112 -58 140 -101 140c-50 0 -100 -28 -100 -140s56 -141 100 -141c46 0 101 29 101 141zM523 399c-20 -16 -49 -14 -64 6c-8 10 -12 22 -9 33c2 8 -29 4 -47 -22c25 -25 37 -62 37 -98c0 -81 -71 -154 -188 -154c-39 0 -69 6 -95 17c-47 -8 -97 -111 21 -111
h120c69 0 190 4 172 -127c0 0 -3 -78 -108 -137c-137 -77 -294 -62 -335 14c-37 68 7 142 73 179c-29 14 -45 41 -45 77c0 0 -4 84 89 111c-53 23 -79 78 -79 131c0 81 72 153 187 153c60 0 109 -18 142 -47c26 39 66 53 90 56c16 1 35 -4 46 -17c15 -20 12 -48 -7 -64z
M94 -156c47 -56 172 -82 261 -27c78 48 71 111 71 111s-4 51 -90 51h-138c-11 0 -50 -1 -85 13c-95 -63 -17 -150 -19 -148z" />
    <glyph glyph-name="h" unicode="h" horiz-adv-x="507" 
d="M488 12v-12h-167v12c38 11 40 30 40 81v213c0 72 -34 114 -104 114c-50 0 -87 -46 -103 -80v-247c0 -55 5 -71 41 -80v-13h-169v13c38 11 40 29 40 80v548c0 35 -9 47 -50 54v13l138 30v-380c15 57 90 113 155 113c82 0 138 -41 138 -161v-217c0 -55 6 -72 41 -81z" />
    <glyph glyph-name="i" unicode="i" horiz-adv-x="245" 
d="M113 554c-29 0 -51 23 -51 51c0 29 22 51 51 51c28 0 51 -22 51 -51c0 -28 -23 -51 -51 -51zM207 13v-13h-168v13c38 11 40 29 40 80v277c0 35 -8 49 -50 60v12l137 29v-378c0 -56 5 -71 41 -80z" />
    <glyph glyph-name="j" unicode="j" horiz-adv-x="241" 
d="M113 554c-28 0 -51 23 -51 51c0 29 23 52 51 52s51 -23 51 -52c0 -28 -23 -51 -51 -51zM79 27v339c0 34 -7 53 -50 64v12l137 29v-421c0 -189 -69 -253 -168 -278v12c81 25 81 208 81 243z" />
    <glyph glyph-name="k" unicode="k" horiz-adv-x="511" 
d="M499 13v-13h-89c-69 0 -88 19 -160 118c-16 21 -76 97 -76 97l94 97s148 139 15 137v13h225v-13c-46 -1 -103 -11 -265 -188c74 -105 172 -208 172 -208c30 -37 61 -40 84 -40zM188 13v-13h-169v13c38 11 40 28 40 79v549c0 35 -9 49 -50 57v13l138 27v-646
c0 -55 5 -70 41 -79z" />
    <glyph glyph-name="l" unicode="l" horiz-adv-x="230" 
d="M201 13v-13h-168v13c38 11 40 28 40 79v549c0 35 -9 49 -50 57v13l138 27v-646c0 -55 5 -70 40 -79z" />
    <glyph glyph-name="m" unicode="m" horiz-adv-x="747" 
d="M730 12v-12h-168v12c38 11 40 30 40 81v215c0 72 -27 113 -91 113c-50 0 -92 -51 -92 -88v-24v-216c0 -55 5 -72 41 -81v-12h-168v12c38 11 40 30 40 81v215c0 72 -27 113 -91 113c-50 0 -87 -52 -94 -86v-243c0 -55 5 -70 41 -79v-13h-168v13c38 11 39 28 39 79v275
c0 35 -8 52 -50 63v12l138 29v-103c22 57 78 103 141 103c70 0 115 -32 128 -107c18 59 78 107 142 107c82 0 131 -39 131 -160v-218c0 -55 6 -72 41 -81z" />
    <glyph glyph-name="n" unicode="n" horiz-adv-x="506" 
d="M480 12v-12h-168v12c38 11 40 30 40 81v215c0 68 -36 113 -102 113c-52 0 -94 -50 -102 -86v-243c0 -55 5 -70 41 -79v-13h-168v13c38 11 39 28 39 79v279c0 35 -8 48 -50 59v12l138 29v-105c21 58 90 105 153 105c81 0 138 -39 138 -160v-218c0 -55 6 -72 41 -81z" />
    <glyph glyph-name="o" unicode="o" horiz-adv-x="542" 
d="M398 231c0 181 -51 227 -127 227c-77 0 -129 -46 -129 -227s52 -227 129 -227c76 0 127 46 127 227zM501 231c0 -131 -77 -240 -230 -240c-152 0 -231 109 -231 240c0 132 79 240 231 240c153 0 230 -108 230 -240z" />
    <glyph glyph-name="p" unicode="p" horiz-adv-x="561" 
d="M408 213c0 158 -53 228 -139 228c-67 0 -109 -48 -115 -117v-188c6 -89 59 -132 122 -132c66 0 132 48 132 209zM513 227c0 -156 -101 -236 -234 -236c-51 0 -93 14 -125 38v-205c0 -56 6 -67 41 -76v-13h-168v13c38 11 40 25 40 76v553c0 34 -9 45 -50 53v12l137 29v-78
c31 53 98 78 149 78c133 0 210 -106 210 -244z" />
    <glyph glyph-name="q" unicode="q" horiz-adv-x="550" 
d="M392 127v193c-3 94 -56 138 -115 138c-67 0 -132 -46 -132 -207c0 -158 49 -236 136 -236c64 0 108 45 111 112zM521 -252v-13h-168v13c37 11 39 24 39 75v227c-33 -40 -91 -59 -136 -59c-133 0 -210 107 -210 246c0 156 101 234 234 234c52 0 96 -15 129 -41
c25 28 71 45 71 30v-637c0 -55 5 -66 41 -75z" />
    <glyph glyph-name="r" unicode="r" horiz-adv-x="364" 
d="M286 468c18 2 43 -3 57 -19c20 -24 17 -58 -7 -78c-23 -19 -57 -17 -78 7c-9 11 -14 25 -11 38c3 17 -64 -7 -95 -74v-249c0 -56 5 -71 41 -80v-13h-169v13c38 11 40 28 40 80v277c0 35 -9 49 -50 60v12l138 29v-105c37 68 94 97 134 102z" />
    <glyph glyph-name="s" unicode="s" horiz-adv-x="417" 
d="M350 40c0 0 -34 -49 -127 -49c-121 0 -175 40 -175 40v136h13c7 -66 32 -163 162 -163c106 0 93 106 17 156l-101 61c-96 64 -118 124 -78 193c0 0 30 57 132 57c115 0 163 -32 163 -32v-122h-12c-7 59 -35 141 -151 141c-95 0 -102 -94 -15 -149l101 -63
c90 -56 119 -137 71 -206z" />
    <glyph glyph-name="t" unicode="t" horiz-adv-x="316" 
d="M294 82l10 -5c-14 -44 -59 -86 -117 -86c-73 0 -117 32 -117 153v305h-51l-2 13h53v142l87 14v-156h119l-3 -13h-116v-302c0 -80 29 -107 76 -107c29 0 53 21 61 42z" />
    <glyph glyph-name="u" unicode="u" horiz-adv-x="522" 
d="M504 24v-13l-114 -19c-24 -5 -24 15 -24 15v85c-18 -53 -83 -101 -150 -101c-72 0 -143 26 -143 151v225c0 64 1 69 -56 73v12l142 19v-326c0 -76 45 -105 103 -105c50 0 86 35 104 77v252c0 61 2 68 -47 71v12l134 19v-388c0 -48 9 -54 51 -59z" />
    <glyph glyph-name="v" unicode="v" horiz-adv-x="514" 
d="M321 462h193v-13c-38 0 -68 -1 -121 -128l-124 -330h-10c-177 384 -190 408 -190 408c-25 50 -53 49 -70 50v13h208v-13c-67 0 -31 -69 -31 -69l124 -271l77 207s53 133 -56 133v13z" />
    <glyph glyph-name="w" unicode="w" horiz-adv-x="749" 
d="M564 462h177v-13c-25 0 -64 -4 -106 -123l-116 -335h-10l-133 309l-109 -309h-11c-164 384 -175 406 -175 406c-21 47 -50 51 -65 52v13h192v-13c-56 0 -28 -60 -28 -60l117 -275l71 203c-30 72 -34 80 -34 80c-22 47 -46 51 -61 52v13h192v-13c-64 0 -32 -62 -32 -62
l116 -273l73 217s42 118 -58 118v13z" />
    <glyph glyph-name="x" unicode="x" horiz-adv-x="518" 
d="M419 64c35 -51 75 -50 92 -51v-13h-202v13c52 0 0 70 0 70l-74 109l-36 -52c-44 -66 -82 -127 17 -127v-13h-203v13c29 0 76 -5 176 137l38 53l-135 198c-38 47 -54 48 -80 49v12h203v-12c-24 0 -46 -15 -8 -70l70 -103l32 45c33 52 85 128 -21 128v12h213v-12
c-35 -1 -81 5 -183 -138l-34 -47z" />
    <glyph glyph-name="y" unicode="y" horiz-adv-x="532" 
d="M320 462h193v-12c-35 0 -69 -9 -128 -160l-155 -423c-20 -58 -47 -81 -61 -93c-14 -11 -41 -16 -60 -7c-27 12 -38 43 -27 70c13 27 44 39 70 27c14 -6 23 -19 27 -32c4 -14 25 0 39 37l45 127c-119 263 -187 403 -187 403c-20 46 -55 50 -70 51v12h207v-12
c-65 0 -30 -73 -30 -73l124 -266l66 182s63 158 -53 157v12z" />
    <glyph glyph-name="z" unicode="z" horiz-adv-x="432" 
d="M389 462l-248 -450c150 0 210 50 224 140h13l-9 -152h-340l259 449c-134 0 -215 -25 -231 -119h-13l5 132h340z" />
    <glyph glyph-name="braceleft" unicode="{" horiz-adv-x="313" 
d="M268 -154l-1 -10c-79 11 -139 52 -139 167v117c0 148 -40 143 -79 154v11c39 12 79 8 79 166v117c0 115 60 156 139 167l1 -10c-41 -15 -70 -53 -70 -157v-144c0 -110 -66 -144 -112 -144c46 0 112 -24 112 -133v-144c0 -104 29 -143 70 -157z" />
    <glyph glyph-name="bar" unicode="|" horiz-adv-x="202" 
d="M73 -164v899h58v-899h-58z" />
    <glyph glyph-name="braceright" unicode="}" horiz-adv-x="319" 
d="M49 -164l-1 10c41 14 70 53 70 157v144c0 109 66 133 112 133c-46 0 -112 34 -112 144v144c0 104 -29 142 -70 157l1 10c79 -11 139 -52 139 -167v-117c0 -158 40 -154 79 -166v-11c-39 -11 -79 -6 -79 -154v-117c0 -115 -60 -156 -139 -167z" />
    <glyph glyph-name="asciitilde" unicode="~" horiz-adv-x="578" 
d="M337 212l-115 43c-33 12 -123 13 -150 -45l-10 4c61 152 186 108 186 108l115 -43c32 -13 124 -9 148 46l10 -4c-61 -153 -184 -109 -184 -109z" />
    <glyph glyph-name="uni007F" horiz-adv-x="0" 
 />
    <glyph glyph-name="uni00A0" unicode="&#xa0;" horiz-adv-x="250" 
 />
    <glyph glyph-name="exclamdown" unicode="&#xa1;" horiz-adv-x="286" 
d="M122 373h47l22 -548h-92zM146 569c33 0 59 -26 59 -58c0 -33 -26 -58 -59 -58c-32 0 -58 25 -58 58c0 32 26 58 58 58z" />
    <glyph glyph-name="cent" unicode="&#xa2;" horiz-adv-x="504" 
d="M168 242c0 -125 65 -180 131 -194v409c-48 -8 -131 -53 -131 -215zM467 128l11 -5c-11 -47 -55 -123 -160 -132v-109h-19v109c-130 2 -224 95 -224 240c0 117 82 231 224 240v122h19v-122c98 0 128 -44 137 -60c8 -14 10 -34 1 -49c-13 -21 -43 -31 -64 -18
c-23 14 -30 42 -17 64c7 11 18 18 28 21c10 0 -19 29 -85 29v-412c72 -4 132 42 149 82z" />
    <glyph glyph-name="sterling" unicode="&#xa3;" horiz-adv-x="645" 
d="M288 86c-35 24 -66 43 -95 55c-99 42 -157 -29 -145 -74c17 -62 78 -63 91 -63c67 0 121 30 149 82zM248 170c0 0 39 -15 52 -25c4 42 -10 80 -45 133c-16 25 -36 56 -54 84h-96v14h90c-147 295 84 413 223 352c59 -26 76 -64 83 -87c6 -18 -1 -42 -17 -57
c-23 -20 -58 -18 -79 4c-22 24 -19 59 4 80c11 11 25 13 39 12s-4 26 -35 36c-150 49 -269 -63 -105 -340h178v-14h-169l31 -45c44 -69 35 -143 10 -195c33 -22 93 -44 93 -44c60 -22 129 -1 134 52l14 -2c1 -107 -88 -134 -108 -136c-51 -4 -106 30 -172 75
c-46 -63 -109 -76 -179 -76c-10 0 -83 4 -105 74c-15 46 31 172 213 105z" />
    <glyph glyph-name="currency" unicode="&#xa4;" horiz-adv-x="573" 
d="M156 465c-32 -32 -50 -75 -50 -120s18 -88 50 -120c32 -31 74 -50 120 -50s89 19 120 50s50 74 50 120s-19 88 -50 120s-74 50 -120 50s-88 -18 -120 -50zM458 205l76 -76l-41 -42l-76 76c-39 -31 -89 -48 -141 -48s-101 17 -141 48l-75 -76l-42 42l76 76
c-31 39 -48 88 -48 140s17 102 48 141l-76 76l42 41l75 -75c40 31 89 48 141 48s102 -17 141 -48l76 75l41 -41l-76 -76c31 -39 48 -89 48 -141s-17 -101 -48 -140z" />
    <glyph glyph-name="yen" unicode="&#xa5;" horiz-adv-x="620" 
d="M387 691v13h257v-13c-43 0 -95 0 -206 -219l-74 -153h170v-15h-172v-68h172v-15h-172v-109c0 -81 33 -99 75 -99v-13h-244v13c42 0 75 18 75 99v109h-192v15h192v51l-10 17h-182v15h174c-133 234 -170 294 -170 294c-45 77 -72 77 -105 79v12h257v-12
c-28 0 -91 1 -23 -114l146 -247l76 154c34 69 91 206 -44 206z" />
    <glyph glyph-name="brokenbar" unicode="&#xa6;" horiz-adv-x="200" 
d="M130 735v-376h-59v376h59zM130 185v-377h-59v377h59z" />
    <glyph glyph-name="section" unicode="&#xa7;" horiz-adv-x="532" 
d="M188 404c-148 -97 -68 -188 11 -242c38 -27 102 -67 119 -79c17 -11 30 -21 35 -25c146 100 63 190 -16 244c-40 28 -106 71 -123 83c-13 9 -23 16 -26 19zM364 48c48 -43 80 -92 71 -164c-16 -139 -147 -143 -205 -138c-53 4 -98 39 -111 66c-7 15 -7 37 4 52
c15 23 46 28 69 13c23 -16 29 -48 13 -70c-9 -11 -22 -17 -34 -19c-11 -3 21 -24 57 -29c67 -8 132 23 140 92c7 55 -9 91 -82 143l-127 86c-115 79 -165 216 17 334c-53 47 -79 94 -71 166c16 139 140 143 200 139c53 -4 98 -39 111 -67c7 -15 8 -37 -2 -52
c-16 -23 -47 -28 -71 -12c-22 16 -28 47 -12 69c8 11 16 18 29 18c10 1 -13 26 -49 30c-77 7 -139 -22 -147 -92c-7 -54 13 -91 86 -144l127 -85c116 -78 167 -221 -13 -336z" />
    <glyph glyph-name="dieresis" unicode="&#xa8;" horiz-adv-x="234" 
d="M151 646c0 26 20 47 46 47c25 0 47 -21 47 -47s-22 -46 -47 -46c-26 0 -46 20 -46 46zM-9 646c0 26 21 47 46 47c26 0 47 -21 47 -47s-21 -46 -47 -46c-25 0 -46 20 -46 46z" />
    <glyph glyph-name="copyright" unicode="&#xa9;" horiz-adv-x="797" 
d="M519 275h11l5 -85c-42 -28 -74 -35 -134 -35c-117 0 -196 78 -196 203c0 127 79 203 196 203c58 0 99 -5 134 -34l-5 -86h-11c-8 99 -80 107 -118 107c-52 0 -123 -20 -123 -190c0 -173 76 -190 123 -190c38 0 110 8 118 107zM398 51c173 0 316 142 316 317
c0 174 -143 318 -316 318c-174 0 -317 -144 -317 -318c0 -175 143 -317 317 -317zM398 735c203 0 368 -164 368 -367s-165 -367 -368 -367c-204 0 -368 164 -368 367s164 367 368 367z" />
    <glyph glyph-name="ordfeminine" unicode="&#xaa;" horiz-adv-x="297" 
d="M154 582c-61 -14 -88 -33 -88 -65c0 -15 10 -40 42 -40c28 0 46 30 46 46v59zM238 491l11 -4c-3 -16 -21 -34 -50 -34c0 0 -45 0 -45 39c-6 -24 -38 -39 -74 -39c0 0 -60 -1 -60 53c0 53 44 66 134 89v29c0 54 -29 80 -70 61c-19 -9 -23 -17 -20 -17c7 0 13 -4 17 -9
c7 -11 4 -26 -6 -34s-25 -6 -33 5c-6 7 -6 17 -3 25c4 9 14 26 40 39c20 10 50 10 50 10c57 0 72 -43 72 -105v-89s0 -33 23 -32c0 0 11 -1 14 13z" />
    <glyph glyph-name="guillemotleft" unicode="&#xab;" horiz-adv-x="610" 
d="M522 505v-26l-148 -213l148 -207v-26l-231 233zM318 505v-26l-149 -213l149 -207v-26l-231 233z" />
    <glyph glyph-name="logicalnot" unicode="&#xac;" horiz-adv-x="644" 
d="M41 393h555v-309h-62v248h-493v61z" />
    <glyph glyph-name="uni00AD" unicode="&#xad;" horiz-adv-x="444" 
d="M379 220h-315v68h315v-68z" />
    <glyph glyph-name="registered" unicode="&#xae;" horiz-adv-x="800" 
d="M361 362c62 0 109 -1 109 95c0 91 -50 91 -109 91h-17v-186h17zM530 230c8 -41 45 -42 59 -42v-13h-44c-70 1 -58 1 -90 120c-14 54 -85 54 -85 54h-26v-111c0 -38 12 -50 35 -50v-13h-122v13c24 0 34 11 34 57v265c0 35 -10 38 -34 38v13h104c109 0 169 -13 169 -104
c0 -75 -44 -98 -97 -102c29 1 77 -11 97 -125zM399 735c203 0 368 -164 368 -367s-165 -367 -368 -367c-204 0 -368 164 -368 367s164 367 368 367zM399 52c173 0 316 142 316 316c0 175 -143 317 -316 317c-175 0 -317 -142 -317 -317c0 -174 142 -316 317 -316z" />
    <glyph glyph-name="macron" unicode="&#xaf;" horiz-adv-x="360" 
d="M377 597h-393v51h393v-51z" />
    <glyph glyph-name="degree" unicode="&#xb0;" horiz-adv-x="381" 
d="M89 607c0 -54 44 -97 99 -97c53 0 97 43 97 97c0 53 -44 97 -97 97c-55 0 -99 -44 -99 -97zM57 607c0 72 59 130 130 130s130 -58 130 -130c0 -71 -59 -129 -130 -129s-130 58 -130 129z" />
    <glyph glyph-name="plusminus" unicode="&#xb1;" horiz-adv-x="608" 
d="M331 368h229v-62h-229v-166h-62v166h-228v62h228v167h62v-167zM41 0v61h519v-61h-519z" />
    <glyph glyph-name="twosuperior" unicode="&#xb2;" horiz-adv-x="259" 
d="M201 445h13l-18 -66h-166l101 152c92 139 -70 178 -88 87l-13 1c4 88 86 85 86 85c46 0 79 -34 79 -75c0 -30 -16 -57 -52 -104c-22 -30 -71 -105 -71 -105h89c15 0 30 8 40 25z" />
    <glyph glyph-name="threesuperior" unicode="&#xb3;" horiz-adv-x="263" 
d="M223 474c2 -80 -66 -101 -106 -101c-37 0 -63 14 -76 27c-7 6 -9 18 -5 26c5 13 19 20 32 15s20 -20 15 -33c-3 -6 -6 -10 -12 -12c-4 -1 9 -11 46 -11c43 0 68 28 63 78c-3 27 -19 68 -86 72v13c69 11 83 79 43 113c-30 25 -80 9 -88 -32l-14 1c5 74 81 74 86 74
c74 0 116 -103 30 -151c48 -11 71 -46 72 -79z" />
    <glyph glyph-name="acute" unicode="&#xb4;" horiz-adv-x="349" 
d="M87 557l177 163l81 -25l-235 -138h-23z" />
    <glyph glyph-name="mu" unicode="&#xb5;" horiz-adv-x="518" 
d="M498 24v-13l-114 -19c-24 -5 -24 15 -24 15v85c-19 -69 -119 -131 -207 -86v-175c0 -49 10 -59 52 -63v-13l-113 -19c-26 -5 -25 15 -25 15v616c0 64 1 69 -56 73v12l142 19v-333c3 -70 47 -98 103 -98c50 0 86 35 104 77v252c0 61 2 68 -47 71v12l134 19v-388
c0 -48 9 -54 51 -59z" />
    <glyph glyph-name="paragraph" unicode="&#xb6;" horiz-adv-x="624" 
d="M465 574v-700c0 -78 27 -126 75 -126v-13h-134v969h141v-13c-50 0 -82 -47 -82 -117zM287 704h58v-969h-173v13c48 0 114 17 114 107v445c-136 0 -250 34 -250 200c0 165 130 203 250 204h1z" />
    <glyph glyph-name="periodcentered" unicode="&#xb7;" horiz-adv-x="252" 
d="M125 253c-26 0 -47 21 -47 46c0 26 21 47 47 47s47 -21 47 -47c0 -25 -21 -46 -47 -46z" />
    <glyph glyph-name="cedilla" unicode="&#xb8;" horiz-adv-x="266" 
d="M111 -4h13l-22 -63c93 21 134 -31 127 -82c-8 -69 -69 -80 -102 -80c-40 0 -60 16 -66 22c-5 6 -8 16 -5 25c5 13 19 18 31 13c13 -4 20 -17 15 -30c-2 -6 -6 -9 -10 -11c-2 -1 6 -9 35 -10c34 0 60 22 59 60c0 26 -21 87 -105 69z" />
    <glyph glyph-name="onesuperior" unicode="&#xb9;" horiz-adv-x="209" 
d="M131 430c0 -35 19 -37 36 -37v-13h-117v13c19 0 39 3 39 37v199c0 31 -24 18 -39 7l-8 12l73 57h16v-275z" />
    <glyph glyph-name="ordmasculine" unicode="&#xba;" horiz-adv-x="326" 
d="M162 386c40 0 76 22 76 151c0 131 -38 157 -76 157c-40 0 -77 -26 -77 -157c0 -129 38 -151 77 -151zM162 707c103 0 127 -88 127 -170c0 -80 -24 -164 -127 -164c-105 0 -128 84 -128 164c0 82 23 170 128 170z" />
    <glyph glyph-name="guillemotright" unicode="&#xbb;" horiz-adv-x="609" 
d="M83 479v26l231 -239l-231 -233v26l148 207zM287 479v26l231 -239l-231 -233v26l149 207z" />
    <glyph glyph-name="onequarter" unicode="&#xbc;" horiz-adv-x="624" 
d="M14 36l556 673h50l-557 -673h-49zM138 664c0 34 -26 18 -43 5l-8 12l78 65h17v-318c0 -40 21 -40 39 -40v-13h-125v13c21 0 42 2 42 40v236zM452 133v162l-94 -140c-13 -22 -6 -22 8 -22h86zM504 365v-232h50v-27h-50v-38c0 -54 17 -55 39 -55v-13h-129v13
c21 0 38 2 38 53v40h-139v8l170 252z" />
    <glyph glyph-name="onehalf" unicode="&#xbd;" horiz-adv-x="642" 
d="M589 76h11l-21 -76h-189l115 174c105 159 -82 204 -102 98l-12 3c5 101 97 98 97 98c53 0 90 -40 90 -87c0 -34 -20 -65 -61 -119c-25 -34 -81 -120 -81 -120h103c17 0 39 9 50 29zM138 664c0 34 -26 19 -43 6l-8 11l78 65h17v-318c0 -40 21 -40 39 -40v-13h-125v13
c21 0 42 2 42 40v236zM14 36l556 673h50l-557 -673h-49z" />
    <glyph glyph-name="threequarters" unicode="&#xbe;" horiz-adv-x="641" 
d="M452 133v162l-94 -140c-13 -22 -6 -22 8 -22h86zM554 106h-50v-38c0 -54 17 -55 39 -55v-13h-129v13c21 0 38 2 38 53v40h-139v8l170 252l21 -1v-232h50v-27zM264 487c0 -93 -74 -114 -120 -114c-42 0 -71 14 -86 29c-8 7 -9 21 -6 30c6 15 22 22 37 17
c15 -7 22 -23 17 -38c-4 -7 -7 -11 -11 -12c-4 -2 8 -13 49 -13c53 0 77 30 71 89c-3 30 -21 79 -98 84v11c79 13 95 90 50 127c-34 27 -90 9 -100 -37l-14 3c5 83 90 83 95 83c84 0 131 -116 34 -170c54 -11 80 -52 82 -89zM14 36l556 673h50l-557 -673h-49z" />
    <glyph glyph-name="questiondown" unicode="&#xbf;" horiz-adv-x="588" 
d="M260 409c0 36 28 64 64 64c35 0 63 -28 63 -64c0 -35 -28 -63 -63 -63c-36 0 -64 28 -64 63zM253 136c51 20 74 69 69 129l20 3c6 -39 12 -104 -52 -157c-44 -38 -92 -82 -82 -199c14 -153 134 -171 218 -138c42 16 36 44 24 45c-13 1 -24 9 -32 21c-17 24 -11 57 12 74
c24 17 57 9 74 -15c12 -16 10 -37 6 -54c-5 -20 -31 -61 -79 -82c-160 -72 -323 1 -330 145c-7 145 97 205 152 228z" />
    <glyph glyph-name="Agrave" unicode="&#xc0;" 
d="M427 226h-252l121 332zM673 13c-28 2 -49 1 -82 81c0 0 -124 316 -246 610h-11l-167 -455c-87 -231 -112 -235 -150 -236v-13h223v13c-139 -4 -95 120 -68 200h259l35 -87c23 -56 33 -113 -21 -113v-13h228v13zM285 897l177 -163h-23l-235 138z" />
    <glyph glyph-name="Aacute" unicode="&#xc1;" 
d="M175 226h252l-131 332zM673 13v-13h-228v13c54 0 44 57 21 113l-35 87h-259c-27 -80 -71 -204 68 -200v-13h-223v13c38 1 63 5 150 236l167 455h11c122 -294 246 -610 246 -610c33 -80 54 -79 82 -81zM220 734l177 163l81 -25l-235 -138h-23z" />
    <glyph glyph-name="Acircumflex" unicode="&#xc2;" 
d="M427 226h-252l121 332zM673 13c-28 2 -49 1 -82 81c0 0 -124 316 -246 610h-11l-167 -455c-87 -231 -112 -235 -150 -236v-13h223v13c-139 -4 -95 120 -68 200h259l35 -87c23 -56 33 -113 -21 -113v-13h228v13zM460 735l-119 102l-119 -102h-23l142 188l143 -188h-24z
" />
    <glyph glyph-name="Atilde" unicode="&#xc3;" 
d="M385 767l-114 43c-33 12 -122 13 -149 -46l-9 4c60 152 183 110 183 110l115 -44c33 -12 124 -7 149 47l9 -4c-61 -154 -184 -110 -184 -110zM175 226h252l-131 332zM673 13v-13h-228v13c54 0 44 57 21 113l-35 87h-259c-27 -80 -71 -204 68 -200v-13h-223v13
c38 1 63 5 150 236l167 455h11c122 -294 246 -610 246 -610c33 -80 54 -79 82 -81z" />
    <glyph glyph-name="Adieresis" unicode="&#xc4;" 
d="M374 827c0 26 21 47 46 47c26 0 47 -21 47 -47c0 -25 -21 -46 -47 -46c-25 0 -46 21 -46 46zM215 827c0 26 20 47 46 47c25 0 46 -21 46 -47c0 -25 -21 -46 -46 -46c-26 0 -46 21 -46 46zM175 226h252l-131 332zM673 13v-13h-228v13c54 0 44 57 21 113l-35 87h-259
c-27 -80 -71 -204 68 -200v-13h-223v13c38 1 63 5 150 236l167 455h11c122 -294 246 -610 246 -610c33 -80 54 -79 82 -81z" />
    <glyph glyph-name="Aring" unicode="&#xc5;" 
d="M276 879c0 -35 29 -64 65 -64s64 29 64 64c0 36 -28 65 -64 65s-65 -29 -65 -65zM242 879c0 55 44 100 99 100c54 0 99 -45 99 -100c0 -54 -45 -98 -99 -98c-55 0 -99 44 -99 98zM175 226h252l-131 332zM673 13v-13h-228v13c54 0 44 57 21 113l-35 87h-259
c-27 -80 -71 -204 68 -200v-13h-223v13c38 1 63 5 150 236l167 455h11c122 -294 246 -610 246 -610c33 -80 54 -79 82 -81z" />
    <glyph glyph-name="AE" unicode="&#xc6;" horiz-adv-x="939" 
d="M231 249h219v349c0 10 0 33 -2 40zM867 207h13v-207h-492v13c42 0 62 18 62 104v119h-225c-107 -196 -67 -223 13 -223v-13h-229v13c38 1 84 21 213 250l221 396c-11 30 -34 32 -63 32v13h486v-180h-13c-11 166 -174 167 -255 167h-44v-330h55c27 0 123 -3 128 101h13
v-214h-13c-5 104 -103 100 -128 100h-55v-335h36c89 0 257 -4 277 194z" />
    <glyph glyph-name="Ccedilla" unicode="&#xc7;" horiz-adv-x="671" 
d="M603 207h13l12 -154c-74 -49 -134 -62 -241 -62h-16l-19 -54c93 21 134 -31 127 -82c-8 -69 -69 -80 -102 -80c-40 0 -60 16 -66 22c-5 6 -8 16 -5 25c5 13 19 18 31 13c13 -4 20 -17 15 -30c-2 -6 -6 -9 -10 -11c-2 -1 6 -9 35 -10c34 0 60 22 59 60
c0 26 -21 87 -105 69l27 79c-191 12 -318 147 -318 360c0 225 140 361 347 361c103 0 178 -10 241 -61l-12 -155h-13c-28 165 -135 203 -216 203c-104 0 -219 -46 -219 -348c0 -307 118 -348 219 -348c81 0 203 51 216 203z" />
    <glyph glyph-name="Egrave" unicode="&#xc8;" horiz-adv-x="596" 
d="M534 208h-13c-21 -200 -198 -195 -287 -195h-46v336h65c25 0 133 -1 138 -101h13v215h-13c-5 -101 -111 -101 -138 -101h-65v329h54c81 0 254 -2 266 -167h13v180h-490v-13c44 0 54 -32 54 -94v-480c0 -68 -12 -104 -54 -104v-13h503v208zM239 897l177 -163h-23l-235 138
z" />
    <glyph glyph-name="Eacute" unicode="&#xc9;" horiz-adv-x="596" 
d="M521 208h13v-208h-503v13c42 0 54 36 54 104v480c0 62 -10 94 -54 94v13h490v-180h-13c-12 165 -185 167 -266 167h-54v-329h65c27 0 133 0 138 101h13v-215h-13c-5 100 -113 101 -138 101h-65v-336h46c89 0 266 -5 287 195zM153 734l177 163l81 -25l-235 -138h-23z" />
    <glyph glyph-name="Ecircumflex" unicode="&#xca;" horiz-adv-x="596" 
d="M534 208h-13c-21 -200 -198 -195 -287 -195h-46v336h65c25 0 133 -1 138 -101h13v215h-13c-5 -101 -111 -101 -138 -101h-65v329h54c81 0 254 -2 266 -167h13v180h-490v-13c44 0 54 -32 54 -94v-480c0 -68 -12 -104 -54 -104v-13h503v208zM403 735l-119 102l-119 -102
h-23l142 188l143 -188h-24z" />
    <glyph glyph-name="Edieresis" unicode="&#xcb;" horiz-adv-x="596" 
d="M317 827c0 26 21 47 46 47c26 0 47 -21 47 -47c0 -25 -21 -46 -47 -46c-25 0 -46 21 -46 46zM158 827c0 26 20 47 46 47c25 0 46 -21 46 -47c0 -25 -21 -46 -46 -46c-26 0 -46 21 -46 46zM521 208h13v-208h-503v13c42 0 54 36 54 104v480c0 62 -10 94 -54 94v13h490v-180
h-13c-12 165 -185 167 -266 167h-54v-329h65c27 0 133 0 138 101h13v-215h-13c-5 100 -113 101 -138 101h-65v-336h46c89 0 266 -5 287 195z" />
    <glyph glyph-name="Igrave" unicode="&#xcc;" horiz-adv-x="344" 
d="M295 704h-243v-13c44 0 70 -17 70 -79v-505c0 -68 -27 -94 -70 -94v-13h243v13c-42 0 -70 26 -70 94v505c0 62 27 79 70 79v13zM119 897l177 -163h-23l-235 138z" />
    <glyph glyph-name="Iacute" unicode="&#xcd;" horiz-adv-x="344" 
d="M52 704h243v-13c-43 0 -70 -17 -70 -79v-505c0 -68 28 -94 70 -94v-13h-243v13c43 0 70 26 70 94v505c0 62 -26 79 -70 79v13zM42 734l177 163l81 -25l-235 -138h-23z" />
    <glyph glyph-name="Icircumflex" unicode="&#xce;" horiz-adv-x="344" 
d="M295 704h-243v-13c44 0 70 -17 70 -79v-505c0 -68 -27 -94 -70 -94v-13h243v13c-42 0 -70 26 -70 94v505c0 62 27 79 70 79v13zM293 735l-119 102l-119 -102h-23l142 188l143 -188h-24z" />
    <glyph glyph-name="Idieresis" unicode="&#xcf;" horiz-adv-x="344" 
d="M254 781c-26 0 -46 21 -46 46c0 26 20 47 46 47c25 0 47 -21 47 -47c0 -25 -22 -46 -47 -46zM141 827c0 -25 -21 -46 -47 -46c-25 0 -46 21 -46 46c0 26 21 47 46 47c26 0 47 -21 47 -47zM53 691v13h242v-13c-43 0 -70 -17 -70 -79v-505c0 -68 28 -94 70 -94v-13h-242v13
c42 0 70 26 70 94v505c0 62 -26 79 -70 79z" />
    <glyph glyph-name="Eth" unicode="&#xd0;" horiz-adv-x="711" 
d="M536 350c0 323 -167 341 -277 341h-44v-330h143v-19h-143v-329h44c108 0 277 5 277 337zM656 350c0 -302 -198 -350 -397 -350h-215v13c43 0 68 38 68 106v223h-92v19h92v225c0 62 -24 105 -68 105v13h215c199 0 397 -61 397 -354z" />
    <glyph glyph-name="Ntilde" unicode="&#xd1;" horiz-adv-x="807" 
d="M443 767l-115 43c-33 12 -122 13 -149 -46l-9 4c60 152 184 110 184 110l114 -44c33 -12 125 -7 149 47l10 -4c-61 -154 -184 -110 -184 -110zM496 704h286v-12c-145 0 -142 -144 -142 -237v-455h-32l-425 548v-298c0 -88 0 -237 131 -237v-13h-289v13
c145 0 145 147 145 237v313l-41 53c-64 80 -93 74 -119 76v12h185l432 -558v309c0 93 1 237 -131 237v12z" />
    <glyph glyph-name="Ograve" unicode="&#xd2;" horiz-adv-x="738" 
d="M575 347c0 -275 -91 -343 -209 -343c-119 0 -210 68 -210 343c0 274 91 353 210 353c118 0 209 -79 209 -353zM691 347c0 198 -105 366 -325 366s-325 -168 -325 -366c0 -199 105 -356 325 -356s325 157 325 356zM325 897l177 -163h-23l-235 138z" />
    <glyph glyph-name="Oacute" unicode="&#xd3;" horiz-adv-x="738" 
d="M575 347c0 274 -91 353 -209 353c-119 0 -210 -79 -210 -353c0 -275 91 -343 210 -343c118 0 209 68 209 343zM691 347c0 -199 -105 -356 -325 -356s-325 157 -325 356c0 198 105 366 325 366s325 -168 325 -366zM246 734l177 163l81 -25l-235 -138h-23z" />
    <glyph glyph-name="Ocircumflex" unicode="&#xd4;" horiz-adv-x="738" 
d="M575 347c0 -275 -91 -343 -209 -343c-119 0 -210 68 -210 343c0 274 91 353 210 353c118 0 209 -79 209 -353zM691 347c0 198 -105 366 -325 366s-325 -168 -325 -366c0 -199 105 -356 325 -356s325 157 325 356zM488 735l-119 102l-119 -102h-23l142 188l143 -188h-24z
" />
    <glyph glyph-name="Otilde" unicode="&#xd5;" horiz-adv-x="738" 
d="M300 810c-33 12 -122 12 -149 -46l-9 4c60 152 184 110 184 110l114 -44c33 -12 125 -7 149 47l10 -4c-61 -154 -184 -110 -184 -110zM575 347c0 -275 -91 -343 -209 -343c-119 0 -210 68 -210 343c0 274 91 353 210 353c118 0 209 -79 209 -353zM691 347
c0 198 -105 366 -325 366s-325 -168 -325 -366c0 -199 105 -356 325 -356s325 157 325 356z" />
    <glyph glyph-name="Odieresis" unicode="&#xd6;" horiz-adv-x="738" 
d="M401 827c0 26 20 47 46 47c25 0 47 -21 47 -47s-22 -46 -47 -46c-26 0 -46 20 -46 46zM241 827c0 26 21 47 46 47c26 0 47 -21 47 -47s-21 -46 -47 -46c-25 0 -46 20 -46 46zM575 347c0 274 -91 353 -209 353c-119 0 -210 -79 -210 -353c0 -275 91 -343 210 -343
c118 0 209 68 209 343zM691 347c0 -199 -105 -356 -325 -356s-325 157 -325 356c0 198 105 366 325 366s325 -168 325 -366z" />
    <glyph glyph-name="multiply" unicode="&#xd7;" horiz-adv-x="600" 
d="M349 255l192 -192l-49 -50l-192 192l-191 -192l-50 50l192 192l-191 189l50 51l190 -190l191 190l49 -50z" />
    <glyph glyph-name="Oslash" unicode="&#xd8;" horiz-adv-x="739" 
d="M367 4c118 0 209 68 209 344c0 115 -18 195 -46 249l-310 -520c36 -55 87 -73 147 -73zM157 348c0 -121 21 -202 52 -254l312 523c-37 62 -91 83 -154 83c-119 0 -210 -78 -210 -352zM564 653c86 -67 128 -180 128 -305c0 -200 -105 -357 -325 -357
c-69 0 -126 16 -173 43l-41 -69h-21l47 79c-92 62 -137 174 -137 304c0 198 105 365 325 365c74 0 134 -17 182 -49l49 81h21z" />
    <glyph glyph-name="Ugrave" unicode="&#xd9;" horiz-adv-x="716" 
d="M308 897l177 -163h-23l-235 138zM322 -9c123 0 243 66 243 245v272c0 94 -3 183 128 183v13h-260v-13c117 0 119 -89 119 -183v-272c0 -129 -79 -200 -181 -200c-108 0 -182 71 -182 195v372c0 79 36 88 79 88v13h-249v-13c44 0 71 -19 71 -87v-364
c0 -163 102 -249 232 -249z" />
    <glyph glyph-name="Uacute" unicode="&#xda;" horiz-adv-x="716" 
d="M322 -9c-130 0 -232 86 -232 249v364c0 68 -27 87 -71 87v13h249v-13c-43 0 -79 -9 -79 -88v-372c0 -124 74 -195 182 -195c102 0 181 71 181 200v272c0 94 -2 183 -119 183v13h260v-13c-131 0 -128 -89 -128 -183v-272c0 -179 -120 -245 -243 -245zM233 734l177 163
l81 -25l-235 -138h-23z" />
    <glyph glyph-name="Ucircumflex" unicode="&#xdb;" horiz-adv-x="716" 
d="M472 735l-119 102l-119 -102h-23l142 188l143 -188h-24zM322 -9c123 0 243 66 243 245v272c0 94 -3 183 128 183v13h-260v-13c117 0 119 -89 119 -183v-272c0 -129 -79 -200 -181 -200c-108 0 -182 71 -182 195v372c0 79 36 88 79 88v13h-249v-13c44 0 71 -19 71 -87
v-364c0 -163 102 -249 232 -249z" />
    <glyph glyph-name="Udieresis" unicode="&#xdc;" horiz-adv-x="716" 
d="M389 827c0 26 20 47 46 47c25 0 47 -21 47 -47s-22 -46 -47 -46c-26 0 -46 20 -46 46zM229 827c0 26 21 47 46 47c26 0 47 -21 47 -47s-21 -46 -47 -46c-25 0 -46 20 -46 46zM322 -9c-130 0 -232 86 -232 249v364c0 68 -27 87 -71 87v13h249v-13c-43 0 -79 -9 -79 -88
v-372c0 -124 74 -195 182 -195c102 0 181 71 181 200v272c0 94 -2 183 -119 183v13h260v-13c-131 0 -128 -89 -128 -183v-272c0 -179 -120 -245 -243 -245z" />
    <glyph glyph-name="Yacute" unicode="&#xdd;" horiz-adv-x="692" 
d="M421 704h257v-12c-43 0 -93 -2 -205 -222l-77 -156v-202c0 -81 33 -99 75 -99v-13h-244v13c42 0 75 18 75 99v176c-147 260 -188 326 -188 326c-45 76 -72 77 -105 79v11h257v-11c-28 0 -91 1 -23 -114l146 -247l75 155c33 70 92 205 -43 205v12zM236 734l177 163l81 -25
l-235 -138h-23z" />
    <glyph glyph-name="Thorn" unicode="&#xde;" horiz-adv-x="580" 
d="M209 565v-375h18c123 0 223 1 223 186c0 190 -106 189 -223 189h-18zM227 177h-18v-60c0 -68 26 -104 68 -104v-13h-232v13c42 0 67 36 67 104v485c0 62 -23 89 -67 89v13h232v-13c-43 0 -68 -27 -68 -89v-24h18c199 0 332 -24 332 -202c0 -177 -133 -199 -332 -199z" />
    <glyph glyph-name="germandbls" unicode="&#xdf;" horiz-adv-x="584" 
d="M560 202c0 -120 -63 -211 -224 -211c-56 0 -87 28 -96 47c-7 14 -9 35 -1 50c12 21 40 28 61 17s27 -41 17 -61c-6 -11 -17 -18 -26 -20c-10 -3 5 -20 45 -20c87 0 118 84 116 205c-2 159 -119 201 -192 201v12c53 0 121 19 121 156c0 163 -108 156 -125 156
c-100 0 -98 -188 -98 -188v-546h-130v12c38 12 40 54 40 105v386c0 153 58 244 188 244c108 0 213 -32 213 -173c0 -124 -119 -155 -139 -155c71 0 230 -46 230 -217z" />
    <glyph glyph-name="agrave" unicode="&#xe0;" horiz-adv-x="485" 
d="M297 247c-116 -28 -167 -72 -167 -132c0 -29 18 -79 79 -79c53 0 78 38 88 62v149zM432 38c0 0 23 0 30 26l12 -5c-6 -30 -40 -68 -92 -68c0 0 -79 -2 -85 84c-14 -48 -72 -84 -142 -84c0 0 -114 0 -114 103c0 100 85 122 256 166v58c0 103 -52 161 -132 124
c-39 -19 -45 -38 -39 -39c12 -2 23 -7 31 -18c15 -20 11 -50 -10 -65c-20 -16 -49 -12 -64 9c-11 15 -13 35 -5 49c7 15 24 45 78 74c43 22 92 19 92 19c109 0 139 -81 139 -200v-170s-1 -63 45 -63zM192 703l177 -163h-23l-235 138z" />
    <glyph glyph-name="aacute" unicode="&#xe1;" horiz-adv-x="485" 
d="M297 247c-116 -28 -167 -72 -167 -132c0 -29 18 -79 79 -79c53 0 78 38 88 62v149zM432 38c0 0 23 0 30 26l12 -5c-6 -30 -40 -68 -92 -68c0 0 -79 -2 -85 84c-14 -48 -72 -84 -142 -84c0 0 -114 0 -114 103c0 100 85 122 256 166v58c0 103 -52 161 -132 124
c-39 -19 -45 -38 -39 -39c12 -2 23 -7 31 -18c15 -20 11 -50 -10 -65c-20 -16 -49 -12 -64 9c-11 15 -13 35 -5 49c7 15 24 45 78 74c43 22 92 19 92 19c109 0 139 -81 139 -200v-170s-1 -63 45 -63zM123 540l177 163l81 -25l-235 -138h-23z" />
    <glyph glyph-name="acircumflex" unicode="&#xe2;" horiz-adv-x="485" 
d="M297 247c-116 -28 -167 -72 -167 -132c0 -29 18 -79 79 -79c53 0 78 38 88 62v149zM432 38c0 0 23 0 30 26l12 -5c-6 -30 -40 -68 -92 -68c0 0 -79 -2 -85 84c-14 -48 -72 -84 -142 -84c0 0 -114 0 -114 103c0 100 85 122 256 166v58c0 103 -52 161 -132 124
c-39 -19 -45 -38 -39 -39c12 -2 23 -7 31 -18c15 -20 11 -50 -10 -65c-20 -16 -49 -12 -64 9c-11 15 -13 35 -5 49c7 15 24 45 78 74c43 22 92 19 92 19c109 0 139 -81 139 -200v-170s-1 -63 45 -63zM369 517l-119 102l-119 -102h-23l142 188l143 -188h-24z" />
    <glyph glyph-name="atilde" unicode="&#xe3;" horiz-adv-x="485" 
d="M300 562l-115 43c-33 12 -122 12 -149 -46l-9 4c60 152 184 109 184 109l114 -43c33 -13 125 -8 149 47l10 -5c-61 -153 -184 -109 -184 -109zM297 247c-116 -28 -167 -72 -167 -132c0 -29 18 -79 79 -79c53 0 78 38 88 62v149zM432 38c0 0 23 0 30 26l12 -5
c-6 -30 -40 -68 -92 -68c0 0 -79 -2 -85 84c-14 -48 -72 -84 -142 -84c0 0 -114 0 -114 103c0 100 85 122 256 166v58c0 103 -52 161 -132 124c-39 -19 -45 -38 -39 -39c12 -2 23 -7 31 -18c15 -20 11 -50 -10 -65c-20 -16 -49 -12 -64 9c-11 15 -13 35 -5 49
c7 15 24 45 78 74c43 22 92 19 92 19c109 0 139 -81 139 -200v-170s-1 -63 45 -63z" />
    <glyph glyph-name="adieresis" unicode="&#xe4;" horiz-adv-x="485" 
d="M323 569c-26 0 -46 21 -46 47s20 47 46 47s47 -21 47 -47s-21 -47 -47 -47zM118 616c0 26 20 47 46 47c25 0 46 -21 46 -47s-21 -47 -46 -47c-26 0 -46 21 -46 47zM297 247c-116 -28 -167 -72 -167 -132c0 -29 18 -79 79 -79c53 0 78 38 88 62v149zM432 38
c0 0 23 0 30 26l12 -5c-6 -30 -40 -68 -92 -68c0 0 -79 -2 -85 84c-14 -48 -72 -84 -142 -84c0 0 -114 0 -114 103c0 100 85 122 256 166v58c0 103 -52 161 -132 124c-39 -19 -45 -38 -39 -39c12 -2 23 -7 31 -18c15 -20 11 -50 -10 -65c-20 -16 -49 -12 -64 9
c-11 15 -13 35 -5 49c7 15 24 45 78 74c43 22 92 19 92 19c109 0 139 -81 139 -200v-170s-1 -63 45 -63z" />
    <glyph glyph-name="aring" unicode="&#xe5;" horiz-adv-x="485" 
d="M241 703c-36 0 -64 -29 -64 -65s28 -65 64 -65s65 29 65 65s-29 65 -65 65zM241 539c-54 0 -98 45 -98 99s44 99 98 99c55 0 99 -45 99 -99s-44 -99 -99 -99zM297 247c-116 -28 -167 -72 -167 -132c0 -29 18 -79 79 -79c53 0 78 38 88 62v149zM432 38c0 0 23 0 30 26
l12 -5c-6 -30 -40 -68 -92 -68c0 0 -79 -2 -85 84c-14 -48 -72 -84 -142 -84c0 0 -114 0 -114 103c0 100 85 122 256 166v58c0 103 -52 161 -132 124c-39 -19 -45 -38 -39 -39c12 -2 23 -7 31 -18c15 -20 11 -50 -10 -65c-20 -16 -49 -12 -64 9c-11 15 -13 35 -5 49
c7 15 24 45 78 74c43 22 92 19 92 19c109 0 139 -81 139 -200v-170s-1 -63 45 -63z" />
    <glyph glyph-name="ae" unicode="&#xe6;" horiz-adv-x="706" 
d="M483 458c-60 0 -109 -75 -109 -207h209c0 152 -50 207 -100 207zM207 36c53 0 83 42 94 73c-10 27 -15 73 -16 100c-1 13 -1 35 -1 35c-29 -9 -154 -43 -154 -129c0 -30 16 -79 77 -79zM501 44c62 -6 116 39 134 80l12 -6c-12 -45 -51 -127 -170 -127
c-81 0 -142 44 -168 104c-14 -62 -74 -104 -154 -104c0 0 -114 0 -114 103c0 93 79 118 243 163v61c0 103 -43 160 -123 123c-39 -19 -43 -37 -37 -38c11 -1 21 -8 29 -18c16 -21 11 -50 -9 -66c-21 -15 -50 -11 -65 10c-11 15 -12 34 -5 49c8 14 23 43 77 72
c43 22 84 21 84 21c54 0 89 -30 108 -73c39 46 79 73 140 73c119 0 182 -69 182 -233h-291c3 -127 42 -186 127 -194z" />
    <glyph glyph-name="ccedilla" unicode="&#xe7;" horiz-adv-x="481" 
d="M437 128l11 -5c-11 -50 -62 -132 -185 -132h-7l-19 -54c93 21 134 -31 127 -82c-8 -69 -69 -80 -102 -80c-40 0 -60 16 -66 22c-5 6 -8 16 -5 25c5 13 19 18 31 13c13 -4 20 -17 15 -30c-2 -6 -6 -9 -10 -11c-2 -1 6 -9 35 -10c34 0 60 22 59 60c0 26 -21 87 -105 69
l27 79c-104 10 -198 100 -198 238c0 123 90 241 243 241c98 0 128 -45 137 -61c8 -14 10 -33 1 -49c-13 -21 -43 -30 -64 -17c-23 13 -30 42 -17 63c7 12 18 20 28 21c9 2 -18 30 -85 30c-40 0 -150 -30 -150 -217c0 -133 75 -188 146 -195c73 -6 135 41 153 82z" />
    <glyph glyph-name="egrave" unicode="&#xe8;" horiz-adv-x="491" 
d="M364 253h-234c0 126 64 205 121 205c48 0 113 -59 113 -205zM422 123c-18 -49 -89 -86 -149 -80c-79 8 -139 62 -143 197h320c0 157 -80 231 -196 231c-124 0 -218 -96 -218 -244c0 -132 89 -236 214 -236c118 0 173 80 184 127zM208 703l177 -163h-23l-235 138z" />
    <glyph glyph-name="eacute" unicode="&#xe9;" horiz-adv-x="491" 
d="M130 253h234c0 146 -65 205 -113 205c-57 0 -121 -79 -121 -205zM422 123l12 -5c-11 -47 -66 -127 -184 -127c-125 0 -214 104 -214 236c0 148 94 244 218 244c116 0 196 -74 196 -231h-320c4 -135 64 -189 143 -197c60 -6 131 31 149 80zM110 540l177 163l81 -25
l-235 -138h-23z" />
    <glyph glyph-name="ecircumflex" unicode="&#xea;" horiz-adv-x="491" 
d="M364 253h-234c0 126 64 205 121 205c48 0 113 -59 113 -205zM422 123c-18 -49 -89 -86 -149 -80c-79 8 -139 62 -143 197h320c0 157 -80 231 -196 231c-124 0 -218 -96 -218 -244c0 -132 89 -236 214 -236c118 0 173 80 184 127zM363 517l-119 102l-119 -102h-23l142 188
l143 -188h-24z" />
    <glyph glyph-name="edieresis" unicode="&#xeb;" horiz-adv-x="491" 
d="M333 569c-26 0 -46 21 -46 47s20 47 46 47c25 0 46 -21 46 -47s-21 -47 -46 -47zM251 458c-57 0 -121 -79 -121 -205h234c0 146 -65 205 -113 205zM273 43c60 -6 131 31 149 80l12 -5c-11 -47 -66 -127 -184 -127c-125 0 -214 104 -214 236c0 148 94 244 218 244
c116 0 196 -74 196 -231h-320c4 -135 64 -189 143 -197zM173 569c-26 0 -46 21 -46 47s20 47 46 47s47 -21 47 -47s-21 -47 -47 -47z" />
    <glyph glyph-name="igrave" unicode="&#xec;" horiz-adv-x="245" 
d="M207 13c-36 9 -41 24 -41 80v378l-138 -29v-12c42 -11 51 -25 51 -60v-277c0 -51 -2 -69 -40 -80v-13h168v13zM72 703l177 -163h-23l-235 138z" />
    <glyph glyph-name="iacute" unicode="&#xed;" horiz-adv-x="245" 
d="M207 13v-13h-168v13c38 11 40 29 40 80v277c0 35 -9 49 -51 60v12l138 29v-378c0 -56 5 -71 41 -80zM2 540l177 163l81 -25l-235 -138h-23z" />
    <glyph glyph-name="icircumflex" unicode="&#xee;" horiz-adv-x="245" 
d="M207 13c-36 9 -41 24 -41 80v378l-138 -29v-12c42 -11 51 -25 51 -60v-277c0 -51 -2 -69 -40 -80v-13h168v13zM242 517l-119 102l-119 -102h-23l142 188l143 -188h-24z" />
    <glyph glyph-name="idieresis" unicode="&#xef;" horiz-adv-x="245" 
d="M197 569c-26 0 -46 21 -46 47s20 47 46 47c25 0 46 -21 46 -47s-21 -47 -46 -47zM37 569c-26 0 -46 21 -46 47s20 47 46 47s47 -21 47 -47s-21 -47 -47 -47zM207 13v-13h-168v13c38 11 40 29 40 80v277c0 35 -9 49 -51 60v12l138 29v-378c0 -56 5 -71 41 -80z" />
    <glyph glyph-name="eth" unicode="&#xf0;" horiz-adv-x="542" 
d="M391 331v2c-32 57 -84 78 -121 78c-77 0 -123 -78 -126 -208c-5 -155 43 -199 107 -199c101 0 140 94 140 327zM378 636c63 -63 119 -174 119 -308c0 -199 -76 -337 -246 -337c-110 0 -219 69 -213 223c4 115 66 223 202 223c49 0 117 -16 151 -80c-1 96 -27 196 -63 254
l-158 -81l-14 11l164 85c-38 50 -91 74 -152 74v13c79 0 142 -24 196 -65l101 54l15 -12z" />
    <glyph glyph-name="ntilde" unicode="&#xf1;" horiz-adv-x="506" 
d="M302 562l-115 43c-33 12 -122 12 -149 -46l-9 4c60 152 184 109 184 109l114 -43c33 -13 125 -8 149 47l10 -5c-61 -153 -184 -109 -184 -109zM480 12v-12h-168v12c38 11 40 30 40 81v215c0 68 -36 113 -102 113c-52 0 -94 -50 -102 -86v-243c0 -55 5 -70 41 -79v-13
h-168v13c38 11 39 28 39 79v279c0 35 -8 48 -50 59v12l138 29v-105c21 58 90 105 153 105c81 0 138 -39 138 -160v-218c0 -55 6 -72 41 -81z" />
    <glyph glyph-name="ograve" unicode="&#xf2;" horiz-adv-x="552" 
d="M398 231c0 -181 -51 -227 -127 -227c-77 0 -129 46 -129 227s52 227 129 227c76 0 127 -46 127 -227zM501 231c0 132 -77 240 -230 240c-152 0 -231 -108 -231 -240c0 -131 79 -240 231 -240c153 0 230 109 230 240zM222 703l177 -163h-23l-235 138z" />
    <glyph glyph-name="oacute" unicode="&#xf3;" horiz-adv-x="542" 
d="M398 231c0 181 -51 227 -127 227c-77 0 -129 -46 -129 -227s52 -227 129 -227c76 0 127 46 127 227zM501 231c0 -131 -77 -240 -230 -240c-152 0 -231 109 -231 240c0 132 79 240 231 240c153 0 230 -108 230 -240zM139 540l177 163l81 -25l-235 -138h-23z" />
    <glyph glyph-name="ocircumflex" unicode="&#xf4;" horiz-adv-x="542" 
d="M398 231c0 -181 -51 -227 -127 -227c-77 0 -129 46 -129 227s52 227 129 227c76 0 127 -46 127 -227zM501 231c0 132 -77 240 -230 240c-152 0 -231 -108 -231 -240c0 -131 79 -240 231 -240c153 0 230 109 230 240zM390 517l-119 102l-119 -102h-23l142 188l143 -188
h-24z" />
    <glyph glyph-name="otilde" unicode="&#xf5;" horiz-adv-x="542" 
d="M206 605c-33 12 -122 12 -149 -46l-9 4c60 152 184 109 184 109l114 -43c33 -13 125 -8 149 47l10 -5c-61 -153 -184 -109 -184 -109zM398 231c0 -181 -51 -227 -127 -227c-77 0 -129 46 -129 227s52 227 129 227c76 0 127 -46 127 -227zM501 231c0 132 -77 240 -230 240
c-152 0 -231 -108 -231 -240c0 -131 79 -240 231 -240c153 0 230 109 230 240z" />
    <glyph glyph-name="odieresis" unicode="&#xf6;" horiz-adv-x="542" 
d="M352 569c-26 0 -46 21 -46 47s20 47 46 47c25 0 46 -21 46 -47s-21 -47 -46 -47zM192 569c-26 0 -46 21 -46 47s20 47 46 47s47 -21 47 -47s-21 -47 -47 -47zM398 231c0 -181 -51 -227 -127 -227c-77 0 -129 46 -129 227s52 227 129 227c76 0 127 -46 127 -227zM501 231
c0 132 -77 240 -230 240c-152 0 -231 -108 -231 -240c0 -131 79 -240 231 -240c153 0 230 109 230 240z" />
    <glyph glyph-name="divide" unicode="&#xf7;" horiz-adv-x="625" 
d="M312 439c-30 0 -55 25 -55 55s25 55 55 55c31 0 55 -25 55 -55s-24 -55 -55 -55zM581 244h-536v66h536v-66zM312 5c-30 0 -55 25 -55 55c0 31 25 55 55 55c31 0 55 -24 55 -55c0 -30 -24 -55 -55 -55z" />
    <glyph glyph-name="oslash" unicode="&#xf8;" horiz-adv-x="543" 
d="M399 230c0 72 -12 123 -30 155l-189 -326c21 -42 51 -55 92 -55c76 0 127 45 127 226zM89 -67l54 92c-68 41 -102 118 -102 205c0 132 79 241 231 241c45 0 84 -10 116 -27l48 81h16l-52 -88c69 -41 102 -119 102 -207c0 -131 -77 -239 -230 -239c-46 0 -85 10 -117 26
l-49 -84h-17zM173 75l189 326c-20 43 -50 57 -90 57c-77 0 -129 -47 -129 -228c0 -73 12 -122 30 -155z" />
    <glyph glyph-name="ugrave" unicode="&#xf9;" horiz-adv-x="522" 
d="M504 24c-42 5 -51 11 -51 59v388l-134 -19v-12c49 -3 47 -10 47 -71v-252c-18 -42 -54 -77 -104 -77c-58 0 -103 29 -103 105v326l-142 -19v-12c57 -4 56 -9 56 -73v-225c0 -125 71 -151 143 -151c67 0 132 48 150 101v-85s0 -20 24 -15l114 19v13zM204 703l177 -163h-23
l-235 138z" />
    <glyph glyph-name="uacute" unicode="&#xfa;" horiz-adv-x="522" 
d="M504 24v-13l-114 -19c-24 -5 -24 15 -24 15v85c-18 -53 -83 -101 -150 -101c-72 0 -143 26 -143 151v225c0 64 1 69 -56 73v12l142 19v-326c0 -76 45 -105 103 -105c50 0 86 35 104 77v252c0 61 2 68 -47 71v12l134 19v-388c0 -48 9 -54 51 -59zM131 540l177 163l81 -25
l-235 -138h-23z" />
    <glyph glyph-name="ucircumflex" unicode="&#xfb;" horiz-adv-x="522" 
d="M504 24c-42 5 -51 11 -51 59v388l-134 -19v-12c49 -3 47 -10 47 -71v-252c-18 -42 -54 -77 -104 -77c-58 0 -103 29 -103 105v326l-142 -19v-12c57 -4 56 -9 56 -73v-225c0 -125 71 -151 143 -151c67 0 132 48 150 101v-85s0 -20 24 -15l114 19v13zM370 517l-119 102
l-119 -102h-23l142 188l143 -188h-24z" />
    <glyph glyph-name="udieresis" unicode="&#xfc;" horiz-adv-x="522" 
d="M336 569c-26 0 -46 21 -46 47s20 47 46 47s47 -21 47 -47s-21 -47 -47 -47zM177 569c-26 0 -46 21 -46 47s20 47 46 47c25 0 46 -21 46 -47s-21 -47 -46 -47zM504 24v-13l-114 -19c-24 -5 -24 15 -24 15v85c-18 -53 -83 -101 -150 -101c-72 0 -143 26 -143 151v225
c0 64 1 69 -56 73v12l142 19v-326c0 -76 45 -105 103 -105c50 0 86 35 104 77v252c0 61 2 68 -47 71v12l134 19v-388c0 -48 9 -54 51 -59z" />
    <glyph glyph-name="yacute" unicode="&#xfd;" horiz-adv-x="532" 
d="M320 462h194v-13c-35 0 -69 -8 -127 -160l-156 -423c-21 -57 -47 -81 -62 -92c-14 -12 -41 -16 -59 -8c-27 13 -39 44 -27 70c12 28 43 39 70 27c14 -6 23 -19 26 -31c4 -13 23 0 37 38l46 125c-119 264 -185 404 -185 404c-20 45 -55 49 -71 50v13h207v-13
c-64 0 -30 -72 -30 -72l123 -265l68 181s62 158 -54 156v13zM121 540l177 163l81 -25l-235 -138h-23z" />
    <glyph glyph-name="thorn" unicode="&#xfe;" horiz-adv-x="552" 
d="M406 213c0 158 -53 228 -139 228c-67 0 -109 -48 -115 -117v-188c6 -89 59 -132 122 -132c66 0 132 48 132 209zM511 227c0 -156 -101 -236 -234 -236c-51 0 -93 14 -125 38v-205c0 -56 6 -67 41 -76v-13h-168v13c38 11 40 25 40 76v813c0 34 -9 45 -50 53v12l137 29
v-338c31 53 98 78 149 78c133 0 210 -106 210 -244z" />
    <glyph glyph-name="ydieresis" unicode="&#xff;" horiz-adv-x="532" 
d="M343 569c-26 0 -46 21 -46 47s20 47 46 47s47 -21 47 -47s-21 -47 -47 -47zM320 462h194v-13c-35 0 -69 -8 -127 -160l-156 -423c-21 -57 -47 -81 -62 -92c-14 -12 -41 -16 -59 -8c-27 13 -39 44 -27 70c12 28 43 39 70 27c14 -6 23 -19 26 -31c4 -13 23 0 37 38l46 125
c-119 264 -185 404 -185 404c-20 45 -55 49 -71 50v13h207v-13c-64 0 -30 -72 -30 -72l123 -265l68 181s62 158 -54 156v13zM184 569c-26 0 -46 21 -46 47s20 47 46 47c25 0 46 -21 46 -47s-21 -47 -46 -47z" />
    <glyph glyph-name="Abreve" unicode="&#x102;" 
d="M175 226h252l-131 332zM673 13v-13h-228v13c54 0 44 57 21 113l-35 87h-259c-27 -80 -71 -204 68 -200v-13h-223v13c38 1 63 5 150 236l167 455h11c122 -294 246 -610 246 -610c33 -80 54 -79 82 -81zM461 906h9c0 -76 -33 -140 -128 -140c-97 0 -131 64 -131 140h10
c0 -37 22 -83 121 -83c97 0 119 46 119 83z" />
    <glyph glyph-name="abreve" unicode="&#x103;" horiz-adv-x="485" 
d="M297 247c-116 -28 -167 -72 -167 -132c0 -29 18 -79 79 -79c53 0 78 38 88 62v149zM432 38c0 0 23 0 30 26l12 -5c-6 -30 -40 -68 -92 -68c0 0 -79 -2 -85 84c-14 -48 -72 -84 -142 -84c0 0 -114 0 -114 103c0 100 85 122 256 166v58c0 103 -52 161 -132 124
c-39 -19 -45 -38 -39 -39c12 -2 23 -7 31 -18c15 -20 11 -50 -10 -65c-20 -16 -49 -12 -64 9c-11 15 -13 35 -5 49c7 15 24 45 78 74c43 22 92 19 92 19c109 0 139 -81 139 -200v-170s-1 -63 45 -63zM379 703h9c0 -76 -33 -140 -128 -140c-97 0 -131 64 -131 140h10
c0 -37 22 -83 121 -83c97 0 119 46 119 83z" />
    <glyph glyph-name="Aogonek" unicode="&#x104;" 
d="M673 13v-13h-56c-59 -28 -95 -83 -85 -121c12 -48 62 -40 62 -40c27 1 41 27 41 48h13c0 -41 -15 -74 -66 -79c-79 -8 -96 43 -96 43c-23 70 26 118 102 149h-143v13c54 0 44 57 21 113l-35 87h-259c-27 -80 -71 -204 68 -200v-13h-223v13c38 1 63 5 150 236l167 455h11
c122 -294 246 -610 246 -610c33 -80 54 -79 82 -81zM175 226h252l-131 332z" />
    <glyph glyph-name="aogonek" unicode="&#x105;" horiz-adv-x="485" 
d="M399 -161c27 1 41 27 41 48h13c0 -41 -15 -74 -66 -79c-79 -8 -96 43 -96 43c-21 63 18 109 83 140c-21 3 -72 15 -77 84c-14 -48 -72 -84 -142 -84c0 0 -114 0 -114 103c0 100 85 122 256 166v58c0 103 -52 161 -132 124c-39 -19 -45 -38 -39 -39c12 -2 23 -7 31 -18
c15 -20 11 -50 -10 -65c-20 -16 -49 -12 -64 9c-11 15 -13 35 -5 49c7 15 24 45 78 74c43 22 92 19 92 19c109 0 139 -81 139 -200v-170s-1 -63 45 -63c0 0 23 0 30 26l12 -5c-5 -23 -26 -51 -59 -62c-55 -29 -88 -82 -78 -118c12 -48 62 -40 62 -40zM297 98v149
c-116 -28 -167 -72 -167 -132c0 -29 18 -79 79 -79c53 0 78 38 88 62z" />
    <glyph glyph-name="Cacute" unicode="&#x106;" horiz-adv-x="671" 
d="M603 207h13l12 -154c-74 -49 -134 -62 -241 -62c-207 0 -347 138 -347 361c0 225 140 361 347 361c103 0 178 -10 241 -61l-12 -155h-13c-28 165 -135 203 -216 203c-104 0 -219 -46 -219 -348c0 -307 118 -348 219 -348c81 0 203 51 216 203zM214 734l177 163l81 -25
l-235 -138h-23z" />
    <glyph glyph-name="cacute" unicode="&#x107;" horiz-adv-x="481" 
d="M437 128l11 -5c-11 -50 -62 -132 -185 -132c-112 0 -218 92 -218 239c0 123 90 241 243 241c98 0 128 -45 137 -61c8 -14 10 -33 1 -49c-13 -21 -43 -30 -64 -17c-23 13 -30 42 -17 63c7 12 18 20 28 21c9 2 -18 30 -85 30c-40 0 -150 -30 -150 -217
c0 -133 75 -188 146 -195c73 -6 135 41 153 82zM131 540l177 163l81 -25l-235 -138h-23z" />
    <glyph glyph-name="Ccaron" unicode="&#x10c;" horiz-adv-x="671" 
d="M603 207h13l12 -154c-74 -49 -134 -62 -241 -62c-207 0 -347 138 -347 361c0 225 140 361 347 361c103 0 178 -10 241 -61l-12 -155h-13c-28 165 -135 203 -216 203c-104 0 -219 -46 -219 -348c0 -307 118 -348 219 -348c81 0 203 51 216 203zM368 820l119 102h24
l-143 -188l-142 188h23z" />
    <glyph glyph-name="ccaron" unicode="&#x10d;" horiz-adv-x="481" 
d="M437 128l11 -5c-11 -50 -62 -132 -185 -132c-112 0 -218 92 -218 239c0 123 90 241 243 241c98 0 128 -45 137 -61c8 -14 10 -33 1 -49c-13 -21 -43 -30 -64 -17c-23 13 -30 42 -17 63c7 12 18 20 28 21c9 2 -18 30 -85 30c-40 0 -150 -30 -150 -217
c0 -133 75 -188 146 -195c73 -6 135 41 153 82zM257 602l119 102h24l-143 -188l-142 188h23z" />
    <glyph glyph-name="Dcaron" unicode="&#x10e;" horiz-adv-x="716" 
d="M536 350c0 323 -167 341 -277 341h-44v-678h44c108 0 277 5 277 337zM656 350c0 -302 -198 -350 -397 -350h-215v13c43 0 68 38 68 106v467c0 62 -24 105 -68 105v13h215c199 0 397 -61 397 -354zM301 820l119 102h24l-143 -188l-142 188h23z" />
    <glyph glyph-name="dcaron" unicode="&#x10f;" horiz-adv-x="661" 
d="M546 704h71c0 -126 -107 -190 -107 -190l-9 11s45 36 45 179zM531 23v-13l-109 -18c-28 -5 -28 18 -28 18v55c-31 -51 -98 -74 -147 -74c-134 0 -211 106 -211 246c0 155 101 234 235 234c49 0 90 -14 123 -37v208c0 35 -10 48 -51 56v13l137 27v-660
c0 -49 11 -55 51 -55zM394 138v175c0 97 -60 145 -121 145c-66 0 -133 -47 -133 -207c0 -159 51 -231 138 -231c66 0 116 48 116 118z" />
    <glyph glyph-name="Dcroat" unicode="&#x110;" horiz-adv-x="711" 
d="M536 350c0 323 -167 341 -277 341h-44v-330h143v-19h-143v-329h44c108 0 277 5 277 337zM656 350c0 -302 -198 -350 -397 -350h-215v13c43 0 68 38 68 106v223h-92v19h92v225c0 62 -24 105 -68 105v13h215c199 0 397 -61 397 -354z" />
    <glyph glyph-name="dcroat" unicode="&#x111;" horiz-adv-x="569" 
d="M394 138v175c0 97 -60 145 -121 145c-66 0 -133 -47 -133 -207c0 -159 51 -231 138 -231c66 0 116 48 116 118zM275 560v19h119v63c0 35 -10 48 -51 56v13l137 27v-159h110v-19h-110v-482c0 -49 11 -55 51 -55v-13l-109 -18c-28 -5 -28 18 -28 18v55
c-31 -51 -98 -74 -147 -74c-134 0 -211 106 -211 246c0 155 101 234 235 234c49 0 90 -14 123 -37v126h-119z" />
    <glyph glyph-name="Eogonek" unicode="&#x118;" horiz-adv-x="596" 
d="M521 208h13v-208h-26c-59 -28 -95 -83 -85 -121c12 -48 62 -40 62 -40c27 1 41 27 41 48h13c0 -41 -15 -74 -66 -79c-79 -8 -96 43 -96 43c-23 70 26 118 102 149h-448v13c42 0 54 36 54 104v480c0 62 -10 94 -54 94v13h490v-180h-13c-12 165 -185 167 -266 167h-54v-329
h65c27 0 133 0 138 101h13v-215h-13c-5 100 -113 101 -138 101h-65v-336h46c89 0 266 -5 287 195z" />
    <glyph glyph-name="eogonek" unicode="&#x119;" horiz-adv-x="491" 
d="M422 123l12 -5c-10 -40 -50 -104 -134 -122c-54 -29 -87 -80 -77 -117c12 -48 62 -40 62 -40c27 1 41 27 41 48h13c0 -41 -15 -74 -66 -79c-79 -8 -96 43 -96 43c-21 63 17 109 81 140h-8c-125 0 -214 104 -214 236c0 148 94 244 218 244c116 0 196 -74 196 -231h-320
c4 -135 64 -189 143 -197c60 -6 131 31 149 80zM130 253h234c0 146 -65 205 -113 205c-57 0 -121 -79 -121 -205z" />
    <glyph glyph-name="Ecaron" unicode="&#x11a;" horiz-adv-x="596" 
d="M521 208h13v-208h-503v13c42 0 54 36 54 104v480c0 62 -10 94 -54 94v13h490v-180h-13c-12 165 -185 167 -266 167h-54v-329h65c27 0 133 0 138 101h13v-215h-13c-5 100 -113 101 -138 101h-65v-336h46c89 0 266 -5 287 195zM298 820l119 102h24l-143 -188l-142 188h23z
" />
    <glyph glyph-name="ecaron" unicode="&#x11b;" horiz-adv-x="491" 
d="M130 253h234c0 146 -65 205 -113 205c-57 0 -121 -79 -121 -205zM422 123l12 -5c-11 -47 -66 -127 -184 -127c-125 0 -214 104 -214 236c0 148 94 244 218 244c116 0 196 -74 196 -231h-320c4 -135 64 -189 143 -197c60 -6 131 31 149 80zM242 602l119 102h24l-143 -188
l-142 188h23z" />
    <glyph glyph-name="dotlessi" unicode="&#x131;" horiz-adv-x="245" 
d="M207 13v-13h-168v13c38 11 40 29 40 80v277c0 35 -9 49 -51 60v12l138 29v-378c0 -56 5 -71 41 -80z" />
    <glyph glyph-name="Lacute" unicode="&#x139;" horiz-adv-x="610" 
d="M538 217h13v-217h-499v13c43 0 55 38 55 106v488c0 61 -20 84 -63 84v13h238v-13c-43 0 -74 -17 -74 -89v-589h36c107 -1 277 0 294 204zM143 734l177 163l81 -25l-235 -138h-23z" />
    <glyph glyph-name="lacute" unicode="&#x13a;" horiz-adv-x="235" 
d="M201 13v-13h-168v13c38 11 40 28 40 79v549c0 35 -9 49 -50 57v13l138 27v-646c0 -55 5 -70 40 -79zM-15 763l177 163l81 -25l-235 -138h-23z" />
    <glyph glyph-name="Lcaron" unicode="&#x13d;" horiz-adv-x="606" 
d="M318 704h72c0 -126 -108 -190 -108 -190l-8 11s44 36 44 179zM538 217h13v-217h-499v13c43 0 55 38 55 106v488c0 61 -20 84 -63 84v13h238v-13c-43 0 -74 -17 -74 -89v-589h36c107 -1 277 0 294 204z" />
    <glyph glyph-name="lcaron" unicode="&#x13e;" horiz-adv-x="362" 
d="M235 704h72c0 -126 -108 -190 -108 -190l-8 11s44 36 44 179zM201 13v-13h-168v13c38 11 40 28 40 79v549c0 35 -9 49 -50 57v13l138 27v-646c0 -55 5 -70 40 -79z" />
    <glyph glyph-name="Lslash" unicode="&#x141;" horiz-adv-x="630" 
d="M563 217h12v-217h-499v13c43 0 55 42 55 110v167l-123 -69v18l123 69v299c0 61 -20 84 -63 84v13h238v-13c-43 0 -73 -16 -73 -89v-237l203 115v-18l-203 -115v-334h36c244 -1 294 100 294 204z" />
    <glyph glyph-name="lslash" unicode="&#x142;" horiz-adv-x="295" 
d="M11 262v18l90 54v310c0 35 -9 50 -50 57v13l137 32v-357l85 52v-18l-85 -52v-279c0 -55 5 -70 41 -79v-13h-168v13c38 11 40 28 40 79v224z" />
    <glyph glyph-name="Nacute" unicode="&#x143;" horiz-adv-x="807" 
d="M496 704h286v-12c-145 0 -142 -144 -142 -237v-455h-32l-425 548v-298c0 -88 0 -237 131 -237v-13h-289v13c145 0 145 147 145 237v313l-41 53c-64 80 -93 74 -119 76v12h185l432 -558v309c0 93 1 237 -131 237v12zM269 734l177 163l81 -25l-235 -138h-23z" />
    <glyph glyph-name="nacute" unicode="&#x144;" horiz-adv-x="506" 
d="M480 12v-12h-168v12c38 11 40 30 40 81v215c0 68 -36 113 -102 113c-52 0 -94 -50 -102 -86v-243c0 -55 5 -70 41 -79v-13h-168v13c38 11 39 28 39 79v279c0 35 -8 48 -50 59v12l138 29v-105c21 58 90 105 153 105c81 0 138 -39 138 -160v-218c0 -55 6 -72 41 -81z
M130 540l177 163l81 -25l-235 -138h-23z" />
    <glyph glyph-name="Ncaron" unicode="&#x147;" horiz-adv-x="807" 
d="M496 704h286v-12c-145 0 -142 -144 -142 -237v-455h-32l-425 548v-298c0 -88 0 -237 131 -237v-13h-289v13c145 0 145 147 145 237v313l-41 53c-64 80 -93 74 -119 76v12h185l432 -558v309c0 93 1 237 -131 237v12zM381 820l119 102h24l-143 -188l-142 188h23z" />
    <glyph glyph-name="ncaron" unicode="&#x148;" horiz-adv-x="506" 
d="M480 12v-12h-168v12c38 11 40 30 40 81v215c0 68 -36 113 -102 113c-52 0 -94 -50 -102 -86v-243c0 -55 5 -70 41 -79v-13h-168v13c38 11 39 28 39 79v279c0 35 -8 48 -50 59v12l138 29v-105c21 58 90 105 153 105c81 0 138 -39 138 -160v-218c0 -55 6 -72 41 -81z
M262 602l119 102h24l-143 -188l-142 188h23z" />
    <glyph glyph-name="Ohungarumlaut" unicode="&#x150;" horiz-adv-x="738" 
d="M575 347c0 274 -91 353 -209 353c-119 0 -210 -79 -210 -353c0 -275 91 -343 210 -343c118 0 209 68 209 343zM691 347c0 -199 -105 -356 -325 -356s-325 157 -325 356c0 198 105 366 325 366s325 -168 325 -366zM396 735l171 163l86 -24l-235 -139h-22zM226 735l171 163
l86 -24l-235 -139h-22z" />
    <glyph glyph-name="ohungarumlaut" unicode="&#x151;" horiz-adv-x="542" 
d="M398 231c0 181 -51 227 -127 227c-77 0 -129 -46 -129 -227s52 -227 129 -227c76 0 127 46 127 227zM501 231c0 -131 -77 -240 -230 -240c-152 0 -231 109 -231 240c0 132 79 240 231 240c153 0 230 -108 230 -240zM273 541l171 163l86 -24l-235 -139h-22zM103 541
l171 163l86 -24l-235 -139h-22z" />
    <glyph glyph-name="OE" unicode="&#x152;" horiz-adv-x="933" 
d="M447 100v497c0 91 -50 102 -99 102c-119 0 -190 -79 -190 -353c0 -275 71 -343 190 -343c49 0 99 13 99 97zM348 713c29 0 41 -4 67 -9h436v-180h-13c-17 168 -162 167 -243 167h-45v-329h45c27 0 114 -3 119 101h13v-215h-13c-5 104 -93 100 -119 100h-45v-335h36
c89 0 246 -6 265 195h13v-208h-447c-26 -6 -39 -9 -69 -9c-220 0 -305 156 -305 355c0 198 85 367 305 367z" />
    <glyph glyph-name="oe" unicode="&#x153;" horiz-adv-x="788" 
d="M459 247h206c0 152 -52 211 -99 211c-60 0 -107 -79 -107 -211zM719 125l12 -6c-11 -45 -47 -128 -164 -128c-70 0 -116 33 -153 86c-36 -53 -80 -86 -162 -86c-152 0 -211 107 -211 238c0 132 59 242 211 242c82 0 130 -38 163 -92c40 57 87 92 151 92
c114 0 181 -73 181 -237h-288c2 -127 45 -182 125 -189c62 -6 119 42 135 80zM252 458c-73 0 -109 -48 -109 -229s36 -225 109 -225c72 0 107 44 107 225s-37 229 -107 229z" />
    <glyph glyph-name="Racute" unicode="&#x154;" horiz-adv-x="643" 
d="M419 513c0 182 -92 178 -199 178h-31v-355h31c113 0 199 -1 199 177zM637 13v-13h-76c-128 0 -113 1 -170 218c-28 105 -129 105 -155 105h-47v-219c0 -69 22 -91 64 -91v-13h-224v13c43 0 62 20 62 104v498c0 62 -18 76 -62 76v13h191c199 0 309 -24 309 -191
c0 -136 -78 -176 -186 -183c66 -3 135 -10 187 -229c18 -76 81 -86 107 -88zM164 734l177 163l81 -25l-235 -138h-23z" />
    <glyph glyph-name="racute" unicode="&#x155;" horiz-adv-x="364" 
d="M286 468c18 2 43 -3 57 -19c20 -24 17 -58 -7 -78c-23 -19 -57 -17 -78 7c-9 11 -14 25 -11 38c3 17 -64 -7 -95 -74v-249c0 -56 5 -71 41 -80v-13h-169v13c38 11 40 28 40 80v277c0 35 -9 49 -50 60v12l138 29v-105c37 68 94 97 134 102zM68 540l177 163l81 -25
l-235 -138h-23z" />
    <glyph glyph-name="Rcaron" unicode="&#x158;" horiz-adv-x="643" 
d="M419 513c0 182 -92 178 -199 178h-31v-355h31c113 0 199 -1 199 177zM637 13v-13h-76c-128 0 -113 1 -170 218c-28 105 -129 105 -155 105h-47v-219c0 -69 22 -91 64 -91v-13h-224v13c43 0 62 20 62 104v498c0 62 -18 76 -62 76v13h191c199 0 309 -24 309 -191
c0 -136 -78 -176 -186 -183c66 -3 135 -10 187 -229c18 -76 81 -86 107 -88zM264 820l119 102h24l-143 -188l-142 188h23z" />
    <glyph glyph-name="rcaron" unicode="&#x159;" horiz-adv-x="364" 
d="M286 468c18 2 43 -3 57 -19c20 -24 17 -58 -7 -78c-23 -19 -57 -17 -78 7c-9 11 -14 25 -11 38c3 17 -64 -7 -95 -74v-249c0 -56 5 -71 41 -80v-13h-169v13c38 11 40 28 40 80v277c0 35 -9 49 -50 60v12l138 29v-105c37 68 94 97 134 102zM175 603l119 102h24l-143 -188
l-142 188h23z" />
    <glyph glyph-name="Sacute" unicode="&#x15a;" horiz-adv-x="564" 
d="M479 73c0 0 -43 -82 -198 -82c-163 0 -238 56 -238 56v192h12c11 -122 56 -235 226 -235c152 0 172 169 55 252l-166 107c-95 63 -186 154 -109 272c0 0 49 78 188 78c145 0 229 -47 229 -47v-168h-14c-9 98 -48 202 -215 202c-108 0 -190 -139 -39 -237l165 -109
c134 -88 156 -199 104 -281zM138 734l177 163l81 -25l-235 -138h-23z" />
    <glyph glyph-name="sacute" unicode="&#x15b;" horiz-adv-x="417" 
d="M350 40c0 0 -34 -49 -127 -49c-121 0 -175 40 -175 40v136h13c7 -66 32 -163 162 -163c106 0 93 106 17 156l-101 61c-96 64 -118 124 -78 193c0 0 30 57 132 57c115 0 163 -32 163 -32v-122h-12c-7 59 -35 141 -151 141c-95 0 -102 -94 -15 -149l101 -63
c90 -56 119 -137 71 -206zM73 540l177 163l81 -25l-235 -138h-23z" />
    <glyph glyph-name="Scedilla" unicode="&#x15e;" horiz-adv-x="564" 
d="M479 73c0 0 -43 -82 -198 -82h-24l-19 -54c93 21 134 -31 127 -82c-8 -69 -69 -80 -102 -80c-40 0 -60 16 -66 22c-5 6 -8 16 -5 25c5 13 19 18 31 13c13 -4 20 -17 15 -30c-2 -6 -6 -9 -10 -11c-2 -1 6 -9 35 -10c34 0 60 22 59 60c0 26 -21 87 -105 69l27 79
c-137 8 -201 55 -201 55v192h12c11 -122 56 -235 226 -235c152 0 172 169 55 252l-166 107c-95 63 -186 154 -109 272c0 0 49 78 188 78c145 0 229 -47 229 -47v-168h-14c-9 98 -48 202 -215 202c-108 0 -190 -139 -39 -237l165 -109c134 -88 156 -199 104 -281z" />
    <glyph glyph-name="scedilla" unicode="&#x15f;" horiz-adv-x="417" 
d="M350 40c0 0 -34 -49 -127 -49h-26l-19 -54c93 21 134 -31 127 -82c-8 -69 -69 -80 -102 -80c-40 0 -60 16 -66 22c-5 6 -8 16 -5 25c5 13 19 18 31 13c13 -4 20 -17 15 -30c-2 -6 -6 -9 -10 -11c-2 -1 6 -9 35 -10c34 0 60 22 59 60c0 26 -21 87 -105 69l27 79
c-93 7 -136 39 -136 39v136h13c7 -66 32 -163 162 -163c106 0 93 106 17 156l-101 61c-96 64 -118 124 -78 193c0 0 30 57 132 57c115 0 163 -32 163 -32v-122h-12c-7 59 -35 141 -151 141c-95 0 -102 -94 -15 -149l101 -63c90 -56 119 -137 71 -206z" />
    <glyph glyph-name="Scaron" unicode="&#x160;" horiz-adv-x="564" 
d="M479 73c0 0 -43 -82 -198 -82c-163 0 -238 56 -238 56v192h12c11 -122 56 -235 226 -235c152 0 172 169 55 252l-166 107c-95 63 -186 154 -109 272c0 0 49 78 188 78c145 0 229 -47 229 -47v-168h-14c-9 98 -48 202 -215 202c-108 0 -190 -139 -39 -237l165 -109
c134 -88 156 -199 104 -281zM264 820l119 102h24l-143 -188l-142 188h23z" />
    <glyph glyph-name="scaron" unicode="&#x161;" horiz-adv-x="417" 
d="M197 580l119 102h24l-143 -188l-142 188h23zM350 40c0 0 -34 -49 -127 -49c-121 0 -175 40 -175 40v136h13c7 -66 32 -163 162 -163c106 0 93 106 17 156l-101 61c-96 64 -118 124 -78 193c0 0 30 57 132 57c115 0 163 -32 163 -32v-122h-12c-7 59 -35 141 -151 141
c-95 0 -102 -94 -15 -149l101 -63c90 -56 119 -137 71 -206z" />
    <glyph glyph-name="uni0162" unicode="&#x162;" horiz-adv-x="652" 
d="M19 704h612v-176h-13c-4 161 -171 163 -185 163h-59v-594c0 -66 31 -84 73 -84v-13h-125l-22 -63c93 21 134 -31 127 -82c-8 -69 -69 -80 -102 -80c-40 0 -60 16 -66 22c-5 6 -8 16 -5 25c5 13 19 18 31 13c13 -4 20 -17 15 -30c-2 -6 -6 -9 -10 -11c-2 -1 6 -9 35 -10
c34 0 60 22 59 60c0 26 -21 87 -105 69l30 87h-106v13c42 0 72 18 72 84v594h-59c-31 0 -180 -2 -184 -163h-13v176z" />
    <glyph glyph-name="uni0163" unicode="&#x163;" horiz-adv-x="316" 
d="M301 81l6 -3c-14 -44 -65 -87 -120 -87h-6l-19 -54c93 21 134 -31 127 -82c-8 -69 -69 -80 -102 -80c-40 0 -60 16 -66 22c-5 6 -8 16 -5 25c5 13 19 18 31 13c13 -4 20 -17 15 -30c-2 -6 -6 -9 -10 -11c-2 -1 6 -9 35 -10c34 0 60 22 59 60c0 26 -21 87 -105 69l27 79
c-62 6 -98 42 -98 152v301h-51l-2 17h53v142l87 14v-156h119l-3 -17h-116v-298c0 -80 29 -106 81 -106c29 0 54 19 63 40z" />
    <glyph glyph-name="Tcaron" unicode="&#x164;" horiz-adv-x="652" 
d="M19 704h612v-176h-13c-4 161 -171 163 -185 163h-59v-594c0 -66 31 -84 73 -84v-13h-244v13c42 0 72 18 72 84v594h-59c-31 0 -180 -2 -184 -163h-13v176zM325 820l119 102h24l-143 -188l-142 188h23z" />
    <glyph glyph-name="tcaron" unicode="&#x165;" horiz-adv-x="328" 
d="M226 704h72c0 -126 -108 -190 -108 -190l-8 11s44 36 44 179zM294 82l10 -5c-14 -44 -59 -86 -117 -86c-73 0 -117 32 -117 153v305h-51l-2 13h53v142l87 14v-156h119l-3 -13h-116v-302c0 -80 29 -107 76 -107c29 0 53 21 61 42z" />
    <glyph glyph-name="Uring" unicode="&#x16e;" horiz-adv-x="716" 
d="M322 -9c-130 0 -232 86 -232 249v364c0 68 -27 87 -71 87v13h249v-13c-43 0 -79 -9 -79 -88v-372c0 -124 74 -195 182 -195c102 0 181 71 181 200v272c0 94 -2 183 -119 183v13h260v-13c-131 0 -128 -89 -128 -183v-272c0 -179 -120 -245 -243 -245zM293 880
c0 -34 27 -62 61 -62c35 0 62 28 62 62c0 35 -27 62 -62 62c-34 0 -61 -27 -61 -62zM260 880c0 52 43 94 94 94c52 0 94 -42 94 -94c0 -51 -42 -94 -94 -94c-51 0 -94 43 -94 94z" />
    <glyph glyph-name="uring" unicode="&#x16f;" horiz-adv-x="522" 
d="M504 24v-13l-114 -19c-24 -5 -24 15 -24 15v85c-18 -53 -83 -101 -150 -101c-72 0 -143 26 -143 151v225c0 64 1 69 -56 73v12l142 19v-326c0 -76 45 -105 103 -105c50 0 86 35 104 77v252c0 61 2 68 -47 71v12l134 19v-388c0 -48 9 -54 51 -59zM219 615
c0 -34 27 -62 61 -62c35 0 62 28 62 62c0 35 -27 62 -62 62c-34 0 -61 -27 -61 -62zM186 615c0 52 43 94 94 94c52 0 94 -42 94 -94c0 -51 -42 -94 -94 -94c-51 0 -94 43 -94 94z" />
    <glyph glyph-name="Uhungarumlaut" unicode="&#x170;" horiz-adv-x="716" 
d="M322 -9c-130 0 -232 86 -232 249v364c0 68 -27 87 -71 87v13h249v-13c-43 0 -79 -9 -79 -88v-372c0 -124 74 -195 182 -195c102 0 181 71 181 200v272c0 94 -2 183 -119 183v13h260v-13c-131 0 -128 -89 -128 -183v-272c0 -179 -120 -245 -243 -245zM388 735l171 163
l86 -24l-235 -139h-22zM218 735l171 163l86 -24l-235 -139h-22z" />
    <glyph glyph-name="uhungarumlaut" unicode="&#x171;" horiz-adv-x="522" 
d="M504 24v-13l-114 -19c-24 -5 -24 15 -24 15v85c-18 -53 -83 -101 -150 -101c-72 0 -143 26 -143 151v225c0 64 1 69 -56 73v12l142 19v-326c0 -76 45 -105 103 -105c50 0 86 35 104 77v252c0 61 2 68 -47 71v12l134 19v-388c0 -48 9 -54 51 -59zM278 541l171 163l86 -24
l-235 -139h-22zM108 541l171 163l86 -24l-235 -139h-22z" />
    <glyph glyph-name="Ydieresis" unicode="&#x178;" horiz-adv-x="692" 
d="M383 828c0 26 20 47 46 47c25 0 47 -21 47 -47s-22 -47 -47 -47c-26 0 -46 21 -46 47zM421 704h257v-12c-43 0 -93 -2 -205 -222l-77 -156v-202c0 -81 33 -99 75 -99v-13h-244v13c42 0 75 18 75 99v176c-147 260 -188 326 -188 326c-45 76 -72 77 -105 79v11h257v-11
c-28 0 -91 1 -23 -114l146 -247l75 155c33 70 92 205 -43 205v12zM223 828c0 26 21 47 46 47c26 0 47 -21 47 -47s-21 -47 -47 -47c-25 0 -46 21 -46 47z" />
    <glyph glyph-name="Zacute" unicode="&#x179;" horiz-adv-x="550" 
d="M159 13h23c210 0 286 80 312 220h17l-25 -233h-462l380 691h-49c-186 0 -269 -46 -297 -189h-18l18 202h457zM161 734l177 163l81 -25l-235 -138h-23z" />
    <glyph glyph-name="zacute" unicode="&#x17a;" horiz-adv-x="432" 
d="M389 462l-248 -450c150 0 210 50 224 140h13l-9 -152h-340l259 449c-134 0 -215 -25 -231 -119h-13l5 132h340zM100 540l177 163l81 -25l-235 -138h-23z" />
    <glyph glyph-name="Zdotaccent" unicode="&#x17b;" horiz-adv-x="550" 
d="M159 13h23c210 0 286 80 312 220h17l-25 -233h-462l380 691h-49c-186 0 -269 -46 -297 -189h-18l18 202h457zM285 793c-30 0 -54 24 -54 54c0 29 24 53 54 53c29 0 53 -24 53 -53c0 -30 -24 -54 -53 -54z" />
    <glyph glyph-name="zdotaccent" unicode="&#x17c;" horiz-adv-x="432" 
d="M389 462l-248 -450c150 0 210 50 224 140h13l-9 -152h-340l259 449c-134 0 -215 -25 -231 -119h-13l5 132h340zM221 573c-30 0 -54 24 -54 54c0 29 24 53 54 53c29 0 53 -24 53 -53c0 -30 -24 -54 -53 -54z" />
    <glyph glyph-name="Zcaron" unicode="&#x17d;" horiz-adv-x="550" 
d="M159 13h23c210 0 286 80 312 220h17l-25 -233h-462l380 691h-49c-186 0 -269 -46 -297 -189h-18l18 202h457zM287 820l119 102h24l-143 -188l-142 188h23z" />
    <glyph glyph-name="zcaron" unicode="&#x17e;" horiz-adv-x="432" 
d="M226 580l119 102h24l-143 -188l-142 188h23zM389 462l-248 -450c150 0 210 50 224 140h13l-9 -152h-340l259 449c-134 0 -215 -25 -231 -119h-13l5 132h340z" />
    <glyph glyph-name="florin" unicode="&#x192;" horiz-adv-x="620" 
d="M581 636c-11 -24 -40 -33 -62 -22c-24 12 -33 39 -22 63c5 12 15 20 27 23c5 1 4 23 -39 23c-62 0 -90 -166 -90 -166l-24 -176h111l-6 -14h-106l-37 -269c-32 -242 -69 -338 -205 -337c-61 0 -87 32 -96 46s-11 37 -3 53c11 24 40 33 63 22s33 -40 21 -64
c-5 -11 -16 -19 -26 -22c-7 -2 -7 -23 41 -23c64 0 91 174 91 174l59 420h-76l1 14h75c24 194 74 354 207 354c53 0 85 -32 93 -46c9 -14 11 -37 3 -53z" />
    <glyph glyph-name="circumflex" unicode="&#x2c6;" horiz-adv-x="285" 
d="M142 633l-119 -102h-23l142 188l143 -188h-24z" />
    <glyph glyph-name="caron" unicode="&#x2c7;" horiz-adv-x="287" 
d="M142 618l119 102h24l-143 -188l-142 188h23z" />
    <glyph glyph-name="uni02C9" unicode="&#x2c9;" horiz-adv-x="305" 
d="M330 593h-355v56h355v-56z" />
    <glyph glyph-name="breve" unicode="&#x2d8;" horiz-adv-x="257" 
d="M249 703h9c0 -76 -33 -140 -128 -140c-97 0 -131 64 -131 140h10c0 -37 22 -83 121 -83c97 0 119 46 119 83z" />
    <glyph glyph-name="dotaccent" unicode="&#x2d9;" horiz-adv-x="264" 
d="M134 592c-30 0 -54 24 -54 54c0 29 24 53 54 53c29 0 53 -24 53 -53c0 -30 -24 -54 -53 -54z" />
    <glyph glyph-name="ring" unicode="&#x2da;" horiz-adv-x="274" 
d="M78 637c0 -34 27 -62 61 -62c35 0 62 28 62 62c0 35 -27 62 -62 62c-34 0 -61 -27 -61 -62zM45 637c0 52 43 94 94 94c52 0 94 -42 94 -94c0 -51 -42 -94 -94 -94c-51 0 -94 43 -94 94z" />
    <glyph glyph-name="ogonek" unicode="&#x2db;" horiz-adv-x="271" 
d="M155 -131c12 -48 62 -40 62 -40c27 1 41 27 41 48h13c0 -41 -15 -74 -66 -79c-79 -8 -96 43 -96 43c-26 78 39 129 131 160v-11c-59 -28 -95 -83 -85 -121z" />
    <glyph glyph-name="tilde" unicode="&#x2dc;" horiz-adv-x="420" 
d="M253 566l-115 43c-33 12 -122 12 -149 -46l-9 4c60 152 184 109 184 109l114 -43c33 -13 125 -8 149 47l10 -5c-61 -153 -184 -109 -184 -109z" />
    <glyph glyph-name="hungarumlaut" unicode="&#x2dd;" horiz-adv-x="516" 
d="M257 557l171 163l86 -24l-235 -139h-22zM87 557l171 163l86 -24l-235 -139h-22z" />
    <glyph glyph-name="uni03A9" unicode="&#x3a9;" horiz-adv-x="703" 
d="M642 138h12l-26 -138h-246c22 117 138 186 138 445c0 253 -104 277 -178 277s-179 -24 -179 -277c0 -259 116 -328 139 -445h-247l-26 138h13c19 -47 52 -56 99 -56h111c-9 32 -50 60 -84 96c-84 89 -110 183 -110 272c0 157 94 285 284 285s284 -128 284 -285
c0 -89 -26 -183 -110 -272c-34 -36 -75 -64 -84 -96h111c46 0 80 9 99 56z" />
    <glyph glyph-name="uni03BC" unicode="&#x3bc;" horiz-adv-x="518" 
d="M498 24v-13l-114 -19c-24 -5 -24 15 -24 15v85c-19 -69 -119 -131 -207 -86v-175c0 -49 10 -59 52 -63v-13l-113 -19c-26 -5 -25 15 -25 15v616c0 64 1 69 -56 73v12l142 19v-333c3 -70 47 -98 103 -98c50 0 86 35 104 77v252c0 61 2 68 -47 71v12l134 19v-388
c0 -48 9 -54 51 -59z" />
    <glyph glyph-name="pi" unicode="&#x3c0;" horiz-adv-x="574" 
d="M507 52l11 -5c-7 -31 -34 -56 -81 -56c-83 0 -83 82 -83 82v319h-128l-10 -217c-7 -143 -146 -217 -146 -217l-6 9c62 48 98 133 103 214l11 211h-9c-41 -1 -111 -12 -150 -66l-10 7s47 124 169 126h246c81 0 122 5 125 61h11c0 -86 -28 -128 -121 -128h-14v-294
c0 -52 27 -66 50 -66c25 0 32 20 32 20z" />
    <glyph glyph-name="uni2010" unicode="&#x2010;" horiz-adv-x="447" 
d="M64 286h315v-64h-315v64z" />
    <glyph glyph-name="endash" unicode="&#x2013;" horiz-adv-x="561" 
d="M0 278h561v-52h-561v52z" />
    <glyph glyph-name="emdash" unicode="&#x2014;" horiz-adv-x="1055" 
d="M0 277h1055v-51h-1055v51z" />
    <glyph glyph-name="quoteleft" unicode="&#x2018;" horiz-adv-x="227" 
d="M162 701l6 -8c-67 -48 -61 -109 -45 -111c14 -2 27 -6 39 -17c23 -23 24 -60 1 -83s-60 -23 -83 0c-35 35 -18 106 9 150c13 20 29 46 73 69z" />
    <glyph glyph-name="quoteright" unicode="&#x2019;" horiz-adv-x="227" 
d="M75 465l-6 8c67 48 61 109 45 111c-14 2 -27 6 -39 17c-23 23 -24 60 -1 83s60 23 83 0c35 -35 18 -106 -9 -150c-13 -20 -29 -46 -73 -69z" />
    <glyph glyph-name="quotesinglbase" unicode="&#x201a;" horiz-adv-x="236" 
d="M74 -126l-6 8c67 48 61 109 45 111c-14 2 -27 6 -39 17c-23 23 -24 60 -1 83s60 23 83 0c35 -35 18 -106 -9 -150c-13 -20 -29 -46 -73 -69z" />
    <glyph glyph-name="quotedblleft" unicode="&#x201c;" horiz-adv-x="437" 
d="M353 708l6 -8c-67 -48 -62 -108 -45 -111c13 -2 27 -6 39 -17c23 -23 24 -60 1 -83s-60 -23 -83 0c-35 36 -18 106 9 150c12 20 29 46 73 69zM153 708l7 -8c-67 -48 -62 -108 -46 -111c14 -2 28 -6 40 -17c23 -23 24 -60 1 -83s-60 -23 -83 0c-35 36 -18 106 9 150
c12 20 29 46 72 69z" />
    <glyph glyph-name="quotedblright" unicode="&#x201d;" horiz-adv-x="428" 
d="M74 463l-6 8c67 48 62 108 45 111c-13 2 -27 6 -39 17c-23 23 -24 60 -1 83s60 23 83 0c35 -36 18 -106 -9 -150c-12 -20 -29 -46 -73 -69zM274 463l-7 8c67 48 62 108 46 111c-14 2 -28 6 -40 17c-23 23 -24 60 -1 83s60 23 83 0c35 -36 18 -106 -9 -150
c-12 -20 -29 -46 -72 -69z" />
    <glyph glyph-name="quotedblbase" unicode="&#x201e;" horiz-adv-x="428" 
d="M73 -125l-6 8c67 48 62 108 45 111c-13 2 -27 6 -39 17c-23 23 -24 60 -1 83s60 23 83 0c35 -36 18 -106 -9 -150c-12 -20 -29 -46 -73 -69zM273 -125l-7 8c67 48 62 108 46 111c-14 2 -28 6 -40 17c-23 23 -24 60 -1 83s60 23 83 0c35 -36 18 -106 -9 -150
c-12 -20 -29 -46 -72 -69z" />
    <glyph glyph-name="dagger" unicode="&#x2020;" horiz-adv-x="392" 
d="M195 645c-24 0 -43 19 -43 43c0 23 19 42 43 42c23 0 42 -19 42 -42c0 -24 -19 -43 -42 -43zM109 448c9 -6 22 -19 34 -39l-4 -3c-18 23 -49 29 -50 23c-1 -8 -3 -17 -10 -24c-14 -15 -37 -15 -52 -1c-14 15 -15 38 0 52c22 22 60 7 82 -8zM203 403c0 0 -2 -53 37 -111
c-41 -241 -41 -528 -41 -557h-7c0 30 -1 316 -42 557c39 60 37 111 37 111c0 60 -19 96 -19 142c0 0 -5 61 27 61s27 -61 27 -61c0 -46 -19 -81 -19 -142zM363 456c14 -14 14 -37 0 -52c-15 -14 -38 -14 -52 1c-7 7 -10 16 -11 24c0 6 -31 0 -49 -23l-5 3c12 20 26 33 35 39
c22 15 60 30 82 8z" />
    <glyph glyph-name="daggerdbl" unicode="&#x2021;" horiz-adv-x="465" 
d="M240 355c0 -49 28 -92 56 -109c-28 -20 -56 -59 -56 -108c0 -67 23 -91 23 -144c0 0 5 -68 -31 -68s-32 68 -32 68c0 53 23 75 23 144c0 49 -28 91 -56 108c28 19 56 60 56 109c0 66 -23 90 -23 143c0 0 -5 69 31 69s32 -69 32 -69c0 -53 -23 -75 -23 -143zM351 403
c0 7 -36 0 -57 -27l-5 4c14 23 29 37 39 44c25 17 68 35 94 9c16 -16 16 -42 0 -59c-17 -16 -43 -16 -59 0c-8 8 -11 19 -12 29zM231 612c-26 0 -48 22 -48 48c0 27 22 49 48 49c27 0 49 -22 49 -49c0 -26 -22 -48 -49 -48zM232 -118c26 0 48 -22 48 -48
c0 -28 -22 -49 -48 -49c-27 0 -49 21 -49 49c0 26 22 48 49 48zM100 374c-16 -16 -42 -16 -60 0c-16 17 -16 43 0 59c26 26 69 8 94 -9c10 -7 26 -21 39 -44l-5 -4c-21 27 -55 34 -56 27c-1 -10 -4 -21 -12 -29zM363 120c16 17 42 17 60 1c16 -17 16 -43 0 -59
c-26 -26 -70 -8 -94 9c-10 7 -26 21 -39 44l4 4c22 -27 57 -34 57 -27c1 10 4 20 12 28zM113 92c0 -7 35 0 56 27l5 -4c-14 -23 -29 -37 -39 -44c-25 -17 -69 -35 -94 -9c-16 16 -16 42 0 59c17 16 43 16 59 -1c8 -8 12 -18 13 -28z" />
    <glyph glyph-name="bullet" unicode="&#x2022;" horiz-adv-x="423" 
d="M214 243c-54 0 -99 44 -99 98c0 56 45 99 99 99c55 0 99 -43 99 -99c0 -54 -44 -98 -99 -98z" />
    <glyph glyph-name="ellipsis" unicode="&#x2026;" horiz-adv-x="709" 
d="M616 50c0 -32 -27 -58 -60 -58s-59 26 -59 58c0 34 26 60 59 60s60 -26 60 -60zM409 50c0 -32 -27 -58 -59 -58c-33 0 -59 26 -59 58c0 34 26 60 59 60c32 0 59 -26 59 -60zM204 50c0 -32 -27 -58 -59 -58c-33 0 -59 26 -59 58c0 34 26 60 59 60c32 0 59 -26 59 -60z" />
    <glyph glyph-name="perthousand" unicode="&#x2030;" horiz-adv-x="1073" 
d="M80 496c0 -140 27 -163 71 -163c45 0 70 23 70 163s-27 170 -70 170c-45 0 -71 -30 -71 -170zM285 496c0 -86 -25 -176 -134 -176c-110 0 -134 90 -134 176c0 85 24 183 134 183c109 0 134 -98 134 -183zM584 38c46 0 71 23 71 163s-28 170 -71 170
c-44 0 -70 -30 -70 -170s27 -163 70 -163zM584 384c110 0 134 -98 134 -183c0 -86 -24 -176 -134 -176s-134 90 -134 176c0 85 24 183 134 183zM113 0l456 704h53l-456 -704h-53zM906 38c45 0 70 23 70 163s-27 170 -70 170c-45 0 -71 -30 -71 -170s27 -163 71 -163z
M906 384c109 0 134 -98 134 -183c0 -86 -25 -176 -134 -176c-110 0 -134 90 -134 176c0 85 24 183 134 183z" />
    <glyph glyph-name="guilsinglleft" unicode="&#x2039;" horiz-adv-x="339" 
d="M281 505v-26l-149 -213l149 -207v-26l-231 233z" />
    <glyph glyph-name="guilsinglright" unicode="&#x203a;" horiz-adv-x="339" 
d="M48 479v26l231 -239l-231 -233v26l149 207z" />
    <glyph glyph-name="fraction" unicode="&#x2044;" horiz-adv-x="335" 
d="M458 734h45l-605 -734h-44z" />
    <glyph glyph-name="Euro" unicode="&#x20ac;" horiz-adv-x="596" 
d="M222 415h219l-10 -15h-209c0 -7 -1 -40 -1 -48c0 -7 1 -40 1 -46h203l-10 -15h-193c10 -248 85 -287 153 -287c51 0 149 29 149 170h13v-132c-57 -40 -86 -51 -162 -51c-160 0 -238 115 -253 300h-106l10 15h94c-1 15 -1 32 -1 46s0 31 1 48h-104l10 15h96
c16 185 94 298 253 298c79 0 111 -10 162 -51v-132h-13c0 140 -93 170 -149 170c-69 0 -143 -43 -153 -285z" />
    <glyph glyph-name="afii61289" unicode="&#x2113;" horiz-adv-x="340" 
d="M174 533l-1 -213l43 41c100 95 85 279 43 333c-10 13 -85 78 -85 -161zM305 98l11 -4c-7 -61 -55 -103 -101 -103c-77 0 -130 47 -130 209v29l-63 -48v36l63 50v249c0 227 121 258 183 188c67 -76 59 -280 -39 -368l-57 -54l-1 -109c-4 -92 24 -148 74 -140
c18 4 44 15 60 65z" />
    <glyph glyph-name="trademark" unicode="&#x2122;" horiz-adv-x="670" 
d="M613 472c0 -33 16 -42 34 -42v-13h-105v13c17 0 30 9 30 42v192l-94 -251h-10l-107 240v-128c0 -47 1 -95 46 -95v-13h-114v13c50 0 54 49 54 95v147c-12 19 -33 19 -43 19v13h81l103 -226l84 226h72v-13c-17 0 -31 -8 -31 -36v-183zM13 704h249v-82h-13
c0 69 -62 69 -68 69h-23v-227c0 -27 12 -34 29 -34v-13h-99v13c17 0 29 7 29 34v227h-24c-12 0 -67 0 -67 -69h-13v82z" />
    <glyph glyph-name="Omega" unicode="&#x2126;" horiz-adv-x="703" 
d="M642 138h12l-26 -138h-246c22 117 138 186 138 445c0 253 -104 277 -178 277s-179 -24 -179 -277c0 -259 116 -328 139 -445h-247l-26 138h13c19 -47 52 -56 99 -56h111c-9 32 -50 60 -84 96c-84 89 -110 183 -110 272c0 157 94 285 284 285s284 -128 284 -285
c0 -89 -26 -183 -110 -272c-34 -36 -75 -64 -84 -96h111c46 0 80 9 99 56z" />
    <glyph glyph-name="estimated" unicode="&#x212e;" horiz-adv-x="892" 
d="M170 610v-219h552v215c-70 64 -169 104 -278 104c-107 0 -204 -38 -274 -100zM444 735c228 0 413 -165 413 -368h-687v-242c70 -62 167 -101 274 -101c115 0 219 45 290 116h34c-76 -85 -192 -140 -324 -140c-228 0 -413 164 -413 367s185 368 413 368z" />
    <glyph glyph-name="partialdiff" unicode="&#x2202;" horiz-adv-x="507" 
d="M228 4c68 0 116 109 136 333c-13 47 -54 82 -93 82c-55 0 -119 -55 -135 -209c-17 -169 23 -206 92 -206zM248 744c163 0 232 -162 214 -409c-13 -187 -86 -344 -234 -344c-131 0 -200 83 -187 233c10 115 82 231 194 231c39 0 113 -22 132 -93c23 287 -29 369 -119 369
c-72 0 -155 -82 -142 -160l-12 -4l-28 85c28 54 105 92 182 92z" />
    <glyph glyph-name="Delta" unicode="&#x2206;" horiz-adv-x="714" 
d="M71 36h483l-241 570zM375 738l294 -706l-15 -32h-616l-6 26l1 2l287 692z" />
    <glyph glyph-name="product" unicode="&#x220f;" horiz-adv-x="697" 
d="M590 592v-547c0 -77 24 -117 72 -117v-13h-252v13c48 0 72 40 72 117v544c0 70 -23 101 -72 101h-117c-48 0 -67 -31 -67 -101v-544c0 -77 20 -117 67 -117v-13h-248v13c48 0 74 40 74 117v547c0 69 -24 99 -74 99v13h617v-13c-49 0 -72 -30 -72 -99z" />
    <glyph glyph-name="summation" unicode="&#x2211;" horiz-adv-x="663" 
d="M161 691l216 -375l-242 -401h129c289 0 326 122 349 226h16l-27 -239h-527l199 338l-254 464h570l20 -204h-17c-32 135 -160 191 -307 191h-125z" />
    <glyph glyph-name="minus" unicode="&#x2212;" horiz-adv-x="626" 
d="M581 222h-533v63h533v-63z" />
    <glyph glyph-name="uni2215" unicode="&#x2215;" horiz-adv-x="352" 
d="M458 734h65l-605 -734h-64z" />
    <glyph glyph-name="uni2219" unicode="&#x2219;" horiz-adv-x="250" 
d="M126 249c-27 0 -48 22 -48 49s21 49 48 49s49 -22 49 -49s-22 -49 -49 -49z" />
    <glyph glyph-name="radical" unicode="&#x221a;" horiz-adv-x="565" 
d="M359 -8l150 870l34 -10l-180 -1031l-18 -7l-197 462c-22 52 -60 78 -98 63l-4 11l136 58z" />
    <glyph glyph-name="infinity" unicode="&#x221e;" horiz-adv-x="799" 
d="M677 406c61 -63 61 -166 0 -229c-30 -31 -70 -48 -113 -48s-82 17 -112 48c-2 2 -58 64 -58 64s-57 -62 -59 -64c-30 -31 -69 -48 -112 -48s-84 18 -114 48c-60 62 -58 167 0 230c30 30 71 48 114 48s82 -18 112 -49c2 -1 59 -63 59 -63s56 61 58 63c30 32 69 49 112 49
s83 -18 113 -49zM159 359c-17 -18 -26 -42 -26 -67c0 -26 9 -49 27 -67c16 -17 39 -27 63 -27c23 0 46 9 63 26c2 3 60 68 60 68s-59 64 -61 67c-16 18 -39 27 -62 27c-24 0 -47 -10 -64 -27zM628 225c17 18 26 41 26 67c0 25 -9 49 -26 67c-17 17 -40 27 -64 27
c-23 0 -46 -10 -62 -27c-2 -2 -61 -68 -61 -68s58 -63 61 -66c16 -17 39 -27 62 -27c24 0 47 10 64 27z" />
    <glyph glyph-name="integral" unicode="&#x222b;" horiz-adv-x="352" 
d="M330 746c-9 -22 -33 -32 -54 -23c-22 9 -33 32 -24 54c4 11 13 18 23 22c4 1 -1 14 -29 14c-5 0 -68 1 -50 -203l35 -441c21 -251 -9 -379 -122 -379c-45 0 -70 21 -78 32c-9 13 -13 33 -7 47c8 22 32 33 54 24c21 -9 32 -33 24 -54c-5 -11 -13 -18 -22 -22
c-6 -1 2 -16 30 -16c3 0 70 -1 50 204l-35 440c-21 252 10 380 121 380c45 0 68 -20 78 -32c9 -12 11 -33 6 -47z" />
    <glyph glyph-name="approxequal" unicode="&#x2248;" horiz-adv-x="515" 
d="M300 319l-115 43c-33 12 -122 12 -149 -46l-9 4c60 152 184 109 184 109l114 -43c33 -13 125 -8 149 47l10 -5c-61 -153 -184 -109 -184 -109zM300 140l-115 43c-33 12 -122 12 -149 -46l-9 4c60 152 184 109 184 109l114 -43c33 -13 125 -8 149 47l10 -5
c-61 -153 -184 -109 -184 -109z" />
    <glyph glyph-name="notequal" unicode="&#x2260;" horiz-adv-x="527" 
d="M480 350h-148l-63 -134h211v-59h-239l-60 -128l-53 25l48 103h-130v59h158l62 134h-220v59h248l65 138l53 -25l-52 -113h120v-59z" />
    <glyph glyph-name="lessequal" unicode="&#x2264;" horiz-adv-x="532" 
d="M162 344l317 -165v-74l-423 217v45l423 217v-76zM47 48h432v-58h-432v58z" />
    <glyph glyph-name="greaterequal" unicode="&#x2265;" horiz-adv-x="532" 
d="M55 179l317 165l-317 164v76l423 -217v-45l-423 -217v74zM55 48h432v-58h-432v58z" />
    <glyph glyph-name="lozenge" unicode="&#x25ca;" horiz-adv-x="559" 
d="M438 327l-160 312l-161 -312l161 -313zM301 733l208 -406l-208 -406h-45l-208 406l208 406h45z" />
    <glyph glyph-name="zero.taboldstyle" unicode="&#xf643;" horiz-adv-x="551" 
d="M401 229c0 196 -53 229 -121 229s-122 -33 -122 -229c0 -194 54 -225 122 -225s121 31 121 225zM505 229c0 -162 -84 -238 -225 -238c-139 0 -224 78 -224 238c0 156 85 242 224 242c141 0 225 -79 225 -242z" />
    <glyph glyph-name="one.taboldstyle" unicode="&#xf644;" horiz-adv-x="473" 
d="M202 90v273c0 53 -23 62 -85 32l-3 12l160 64h15v-381c0 -77 41 -78 76 -78v-12h-245v12c40 0 82 4 82 78z" />
    <glyph glyph-name="two.taboldstyle" unicode="&#xf645;" horiz-adv-x="482" 
d="M395 131h12l-37 -131h-298l101 109c114 113 137 193 116 260c-23 71 -90 93 -140 69c-34 -15 -35 -31 -30 -31c10 2 22 0 32 -8c19 -15 20 -43 5 -61c-16 -18 -43 -20 -61 -5c-13 12 -18 29 -15 43c3 12 13 39 65 72c43 28 217 53 241 -74c24 -128 -114 -181 -219 -295
l154 3c32 0 54 10 74 49z" />
    <glyph glyph-name="three.taboldstyle" unicode="&#xf646;" horiz-adv-x="527" 
d="M83 -207c-13 14 -18 37 -10 57c10 29 43 43 71 32c29 -11 42 -43 31 -72c-6 -14 -16 -23 -30 -28c-8 -2 25 -34 105 -34c102 0 150 74 141 188c-5 60 -45 155 -193 166v14c153 26 182 188 96 261c-64 55 -189 19 -206 -74l-15 2c12 164 164 166 183 166
c161 0 253 -225 64 -332c104 -25 159 -104 161 -176c6 -174 -143 -228 -230 -228c-88 0 -141 27 -168 58z" />
    <glyph glyph-name="four.taboldstyle" unicode="&#xf647;" horiz-adv-x="568" 
d="M313 4v346l-204 -305c-27 -41 -13 -41 14 -41h190zM508 -48h-96v-96c0 -106 33 -108 75 -108v-13h-249v13c42 0 75 4 75 103v101h-271v14l335 500l35 -4v-458h96v-52z" />
    <glyph glyph-name="five.taboldstyle" unicode="&#xf648;" horiz-adv-x="553" 
d="M501 -10c17 -179 -127 -255 -255 -255c-98 0 -149 43 -163 58c-13 14 -20 39 -13 59c10 30 43 45 73 35c29 -10 44 -43 34 -73c-5 -15 -17 -24 -30 -30c-11 -4 23 -36 99 -36c125 0 211 99 175 216c-24 81 -128 168 -349 121l60 377h346l-27 -93h-319l-30 -195
c254 59 387 -60 399 -184z" />
    <glyph glyph-name="six.taboldstyle" unicode="&#xf649;" horiz-adv-x="552" 
d="M406 219c0 150 -58 217 -115 217c-79 0 -140 -73 -140 -138c0 -197 40 -294 129 -294c75 0 126 60 126 215zM506 237c0 -155 -87 -246 -226 -246c-169 0 -235 125 -235 324c0 220 111 398 269 398c101 0 125 -49 132 -63c8 -16 6 -40 -6 -55c-19 -23 -52 -26 -74 -8
c-23 18 -26 52 -8 73c9 11 22 20 35 18c7 -1 -9 19 -64 21c-101 6 -178 -78 -178 -359c27 81 90 131 168 131c142 0 187 -132 187 -234z" />
    <glyph glyph-name="seven.taboldstyle" unicode="&#xf64a;" horiz-adv-x="550" 
d="M76 462h451l-51 -87c-133 -236 -167 -413 -167 -635h-105c9 244 67 375 258 635h-306c-47 0 -68 -17 -86 -58h-13z" />
    <glyph glyph-name="eight.taboldstyle" unicode="&#xf64b;" horiz-adv-x="547" 
d="M402 551c-2 120 -68 149 -128 149c-59 0 -116 -41 -116 -114c0 -88 52 -132 159 -175c36 12 86 64 85 140zM286 -9c-148 0 -242 48 -242 168c0 86 79 160 169 189c-100 59 -134 113 -134 190c0 116 91 175 195 175c120 0 192 -61 192 -156c0 -59 -58 -135 -134 -154
c98 -49 182 -117 182 -214c0 -141 -99 -198 -228 -198zM264 320c-17 9 -23 11 -38 20c-34 -16 -104 -63 -104 -177c0 -111 75 -159 164 -159c57 0 142 32 141 142c-1 75 -59 119 -163 174z" />
    <glyph glyph-name="nine.taboldstyle" unicode="&#xf64c;" horiz-adv-x="539" 
d="M138 240c0 -150 58 -215 115 -215c79 0 140 69 140 134c0 186 -40 299 -129 299c-75 0 -126 -63 -126 -218zM38 223c0 165 87 248 226 248c169 0 235 -131 235 -330c0 -253 -85 -406 -265 -406c-110 0 -135 57 -142 72c-9 17 -7 42 7 58c19 25 54 29 78 9
c24 -18 28 -54 9 -78c-10 -11 -24 -19 -38 -19c-7 0 17 -26 71 -29c128 -5 174 67 174 368c-26 -79 -90 -125 -168 -125c-142 0 -187 129 -187 232z" />
    <glyph glyph-name="dollar.taboldstyle" unicode="&#xf653;" horiz-adv-x="538" 
d="M276 4c169 6 165 176 59 251l-59 38v-289zM248 436v264c-108 -2 -189 -140 -39 -238zM374 354c134 -89 156 -199 104 -282c-21 -24 -64 -78 -202 -81v-121h-28v121c-140 7 -206 56 -206 56v192h8c10 -115 53 -219 198 -234v307l-79 51c-95 63 -186 153 -109 272
c0 0 50 77 188 78v123h28v-123c128 -6 201 -47 201 -47v-169h-9c-10 92 -49 193 -192 202v-281z" />
    <glyph glyph-name="cent.taboldstyle" unicode="&#xf654;" horiz-adv-x="504" 
d="M168 242c0 -125 65 -180 131 -194v409c-48 -8 -131 -53 -131 -215zM467 128l11 -5c-11 -47 -55 -123 -160 -132v-109h-19v109c-130 2 -224 95 -224 240c0 117 82 231 224 240v122h19v-122c98 0 128 -44 137 -60c8 -14 10 -34 1 -49c-13 -21 -43 -31 -64 -18
c-23 14 -30 42 -17 64c7 11 18 18 28 21c10 0 -19 29 -85 29v-412c72 -4 132 42 149 82z" />
    <glyph glyph-name="dollar.oldstyle" unicode="&#xf724;" horiz-adv-x="538" 
d="M276 4c169 6 165 176 59 251l-59 38v-289zM248 436v264c-108 -2 -189 -140 -39 -238zM374 354c134 -89 156 -199 104 -282c-21 -24 -64 -78 -202 -81v-121h-28v121c-140 7 -206 56 -206 56v192h8c10 -115 53 -219 198 -234v307l-79 51c-95 63 -186 153 -109 272
c0 0 50 77 188 78v123h28v-123c128 -6 201 -47 201 -47v-169h-9c-10 92 -49 193 -192 202v-281z" />
    <glyph glyph-name="zero.oldstyle" unicode="&#xf730;" horiz-adv-x="551" 
d="M401 229c0 196 -53 229 -121 229s-122 -33 -122 -229c0 -194 54 -225 122 -225s121 31 121 225zM505 229c0 -162 -84 -238 -225 -238c-139 0 -224 78 -224 238c0 156 85 242 224 242c141 0 225 -79 225 -242z" />
    <glyph glyph-name="one.oldstyle" unicode="&#xf731;" horiz-adv-x="473" 
d="M202 90v273c0 53 -23 62 -85 32l-3 12l160 64h15v-381c0 -77 41 -78 76 -78v-12h-245v12c40 0 82 4 82 78z" />
    <glyph glyph-name="two.oldstyle" unicode="&#xf732;" horiz-adv-x="482" 
d="M395 131h12l-37 -131h-298l101 109c114 113 137 193 116 260c-23 71 -90 93 -140 69c-34 -15 -35 -31 -30 -31c10 2 22 0 32 -8c19 -15 20 -43 5 -61c-16 -18 -43 -20 -61 -5c-13 12 -18 29 -15 43c3 12 13 39 65 72c43 28 217 53 241 -74c24 -128 -114 -181 -219 -295
l154 3c32 0 54 10 74 49z" />
    <glyph glyph-name="three.oldstyle" unicode="&#xf733;" horiz-adv-x="527" 
d="M83 -207c-13 14 -18 37 -10 57c10 29 43 43 71 32c29 -11 42 -43 31 -72c-6 -14 -16 -23 -30 -28c-8 -2 25 -34 105 -34c102 0 150 74 141 188c-5 60 -45 155 -193 166v14c153 26 182 188 96 261c-64 55 -189 19 -206 -74l-15 2c12 164 164 166 183 166
c161 0 253 -225 64 -332c104 -25 159 -104 161 -176c6 -174 -143 -228 -230 -228c-88 0 -141 27 -168 58z" />
    <glyph glyph-name="four.oldstyle" unicode="&#xf734;" horiz-adv-x="568" 
d="M313 4v346l-204 -305c-27 -41 -13 -41 14 -41h190zM508 -48h-96v-96c0 -106 33 -108 75 -108v-13h-249v13c42 0 75 4 75 103v101h-271v14l335 500l35 -4v-458h96v-52z" />
    <glyph glyph-name="five.oldstyle" unicode="&#xf735;" horiz-adv-x="553" 
d="M501 -10c17 -179 -127 -255 -255 -255c-98 0 -149 43 -163 58c-13 14 -20 39 -13 59c10 30 43 45 73 35c29 -10 44 -43 34 -73c-5 -15 -17 -24 -30 -30c-11 -4 23 -36 99 -36c125 0 211 99 175 216c-24 81 -128 168 -349 121l60 377h346l-27 -93h-319l-30 -195
c254 59 387 -60 399 -184z" />
    <glyph glyph-name="six.oldstyle" unicode="&#xf736;" horiz-adv-x="552" 
d="M406 219c0 150 -58 217 -115 217c-79 0 -140 -73 -140 -138c0 -197 40 -294 129 -294c75 0 126 60 126 215zM506 237c0 -155 -87 -246 -226 -246c-169 0 -235 125 -235 324c0 220 111 398 269 398c101 0 125 -49 132 -63c8 -16 6 -40 -6 -55c-19 -23 -52 -26 -74 -8
c-23 18 -26 52 -8 73c9 11 22 20 35 18c7 -1 -9 19 -64 21c-101 6 -178 -78 -178 -359c27 81 90 131 168 131c142 0 187 -132 187 -234z" />
    <glyph glyph-name="seven.oldstyle" unicode="&#xf737;" horiz-adv-x="550" 
d="M76 462h451l-51 -87c-133 -236 -167 -413 -167 -635h-105c9 244 67 375 258 635h-306c-47 0 -68 -17 -86 -58h-13z" />
    <glyph glyph-name="eight.oldstyle" unicode="&#xf738;" horiz-adv-x="547" 
d="M402 551c-2 120 -68 149 -128 149c-59 0 -116 -41 -116 -114c0 -88 52 -132 159 -175c36 12 86 64 85 140zM286 -9c-148 0 -242 48 -242 168c0 86 79 160 169 189c-100 59 -134 113 -134 190c0 116 91 175 195 175c120 0 192 -61 192 -156c0 -59 -58 -135 -134 -154
c98 -49 182 -117 182 -214c0 -141 -99 -198 -228 -198zM264 320c-17 9 -23 11 -38 20c-34 -16 -104 -63 -104 -177c0 -111 75 -159 164 -159c57 0 142 32 141 142c-1 75 -59 119 -163 174z" />
    <glyph glyph-name="nine.oldstyle" unicode="&#xf739;" horiz-adv-x="539" 
d="M138 240c0 -150 58 -215 115 -215c79 0 140 69 140 134c0 186 -40 299 -129 299c-75 0 -126 -63 -126 -218zM38 223c0 165 87 248 226 248c169 0 235 -131 235 -330c0 -253 -85 -406 -265 -406c-110 0 -135 57 -142 72c-9 17 -7 42 7 58c19 25 54 29 78 9
c24 -18 28 -54 9 -78c-10 -11 -24 -19 -38 -19c-7 0 17 -26 71 -29c128 -5 174 67 174 368c-26 -79 -90 -125 -168 -125c-142 0 -187 129 -187 232z" />
    <glyph glyph-name="cent.oldstyle" unicode="&#xf7a2;" horiz-adv-x="504" 
d="M168 242c0 -125 65 -180 131 -194v409c-48 -8 -131 -53 -131 -215zM467 128l11 -5c-11 -47 -55 -123 -160 -132v-109h-19v109c-130 2 -224 95 -224 240c0 117 82 231 224 240v122h19v-122c98 0 128 -44 137 -60c8 -14 10 -34 1 -49c-13 -21 -43 -31 -64 -18
c-23 14 -30 42 -17 64c7 11 18 18 28 21c10 0 -19 29 -85 29v-412c72 -4 132 42 149 82z" />
    <glyph glyph-name="fi" unicode="&#xfb01;" horiz-adv-x="524" 
d="M486 8v-8h-168v8c38 11 39 29 39 80v296c0 35 -10 65 -50 65h-137v-364c0 -55 13 -71 48 -77v-8h-175v8c38 8 40 26 40 77v364h-64l-2 13h66v11c0 210 82 272 224 272c61 0 118 -28 129 -82c4 -20 4 -44 -8 -60c-18 -23 -52 -27 -74 -10c-24 19 -28 51 -9 75
c9 11 21 20 34 19c23 -1 -4 45 -72 45c-42 0 -137 -9 -137 -246v-24h138h137v-374c0 -55 5 -71 41 -80z" />
    <glyph glyph-name="fl" unicode="&#xfb02;" horiz-adv-x="519" 
d="M496 13v-13h-168v13c38 11 39 24 39 75v558c0 41 -25 63 -69 70c-47 8 -137 5 -137 -234v-20h107l-2 -13h-105v-364c0 -55 13 -66 49 -73v-12h-176v12c38 9 40 22 40 73v364h-65l-1 13h66v40c0 172 68 243 169 243c41 0 74 -9 100 -25l112 26v-658c0 -55 5 -66 41 -75z
" />
    <glyph glyph-name="NULL" horiz-adv-x="0" 
 />
    <glyph glyph-name="CR" horiz-adv-x="278" 
 />
    <glyph glyph-name="two.superior" horiz-adv-x="259" 
d="M201 445h13l-18 -66h-166l101 152c92 139 -70 178 -88 87l-13 1c4 88 86 85 86 85c46 0 79 -34 79 -75c0 -30 -16 -57 -52 -104c-22 -30 -71 -105 -71 -105h89c15 0 30 8 40 25z" />
    <glyph glyph-name="one.superior" horiz-adv-x="209" 
d="M131 430c0 -35 19 -37 36 -37v-13h-117v13c19 0 39 3 39 37v199c0 31 -24 18 -39 7l-8 12l73 57h16v-275z" />
    <glyph glyph-name="a.superior" horiz-adv-x="297" 
d="M154 582c-61 -14 -88 -33 -88 -65c0 -15 10 -40 42 -40c28 0 46 30 46 46v59zM238 491l11 -4c-3 -16 -21 -34 -50 -34c0 0 -45 0 -45 39c-6 -24 -38 -39 -74 -39c0 0 -60 -1 -60 53c0 53 44 66 134 89v29c0 54 -29 80 -70 61c-19 -9 -23 -17 -20 -17c7 0 13 -4 17 -9
c7 -11 4 -26 -6 -34s-25 -6 -33 5c-6 7 -6 17 -3 25c4 9 14 26 40 39c20 10 50 10 50 10c57 0 72 -43 72 -105v-89s0 -33 23 -32c0 0 11 -1 14 13z" />
    <glyph glyph-name="three.superior" horiz-adv-x="263" 
d="M223 474c2 -80 -66 -101 -106 -101c-37 0 -63 14 -76 27c-7 6 -9 18 -5 26c5 13 19 20 32 15s20 -20 15 -33c-3 -6 -6 -10 -12 -12c-4 -1 9 -11 46 -11c43 0 68 28 63 78c-3 27 -19 68 -86 72v13c69 11 83 79 43 113c-30 25 -80 9 -88 -32l-14 1c5 74 81 74 86 74
c74 0 116 -103 30 -151c48 -11 71 -46 72 -79z" />
    <glyph glyph-name="o.superior" horiz-adv-x="314" 
d="M140 467c33 0 68 6 68 110c0 106 -38 115 -68 115c-31 0 -68 -7 -68 -115c0 -105 37 -110 68 -110zM140 705c82 0 112 -53 112 -128c0 -76 -30 -123 -112 -123c-83 0 -112 49 -112 123c0 77 29 128 112 128z" />
    <glyph glyph-name="uni0219" unicode="&#x219;" horiz-adv-x="417" 
d="M175 -265l-6 8c67 48 61 109 45 111c-14 2 -27 6 -39 17c-23 23 -24 60 -1 83s60 23 83 0c35 -35 18 -106 -9 -150c-13 -20 -29 -46 -73 -69zM350 40c0 0 -34 -49 -127 -49c-121 0 -175 40 -175 40v136h13c7 -66 32 -163 162 -163c106 0 93 106 17 156l-101 61
c-96 64 -118 124 -78 193c0 0 30 57 132 57c115 0 163 -32 163 -32v-122h-12c-7 59 -35 141 -151 141c-95 0 -102 -94 -15 -149l101 -63c90 -56 119 -137 71 -206z" />
    <glyph glyph-name="uni021B" unicode="&#x21b;" horiz-adv-x="316" 
d="M136 -265l-6 8c67 48 61 109 45 111c-14 2 -27 6 -39 17c-23 23 -24 60 -1 83s60 23 83 0c35 -35 18 -106 -9 -150c-13 -20 -29 -46 -73 -69zM294 82l10 -5c-14 -44 -59 -86 -117 -86c-73 0 -117 32 -117 153v305h-51l-2 13h53v142l87 14v-156h119l-3 -13h-116v-302
c0 -80 29 -107 76 -107c29 0 53 21 61 42z" />
    <glyph glyph-name="uni021A" unicode="&#x21a;" horiz-adv-x="652" 
d="M286 -265l-6 8c67 48 61 109 45 111c-14 2 -27 6 -39 17c-23 23 -24 60 -1 83s60 23 83 0c35 -35 18 -106 -9 -150c-13 -20 -29 -46 -73 -69zM19 704h612v-176h-13c-4 161 -171 163 -185 163h-59v-594c0 -66 31 -84 73 -84v-13h-244v13c42 0 72 18 72 84v594h-59
c-31 0 -180 -2 -184 -163h-13v176z" />
    <glyph glyph-name="uni0218" unicode="&#x218;" horiz-adv-x="564" 
d="M236 -265l-6 8c67 48 61 109 45 111c-14 2 -27 6 -39 17c-23 23 -24 60 -1 83s60 23 83 0c35 -35 18 -106 -9 -150c-13 -20 -29 -46 -73 -69zM479 73c0 0 -43 -82 -198 -82c-163 0 -238 56 -238 56v192h12c11 -122 56 -235 226 -235c152 0 172 169 55 252l-166 107
c-95 63 -186 154 -109 272c0 0 49 78 188 78c145 0 229 -47 229 -47v-168h-14c-9 98 -48 202 -215 202c-108 0 -190 -139 -39 -237l165 -109c134 -88 156 -199 104 -281z" />
    </font>
</defs>
</svg>
