<svg xmlns="http://www.w3.org/2000/svg" fill="none" height="468" width="436"><g opacity=".5" stroke="#e0e0e0" stroke-width=".5"><path d="M266.442 93.332c-30.444 17.788-61.43 53.306-73.118 68.842-12.827 28.221-17.959 43.614-39.339 73.118-21.379 29.504-71.407 32.497-102.621 52.166s1.71 92.787 41.049 127.85c39.338 35.062 68.842-33.78 100.911-62.001s87.229-85.518 141.96-127.85c54.732-42.331 44.897-63.283 23.945-115.021-20.952-51.739-54.731-39.339-92.787-17.104z"/><path d="M204.869 228.451c-9.92 31.47-36.06 57.867-47.89 67.131 0 67.132 47.89-11.117 119.297-67.131 71.408-56.015 66.277-127.85 15.393-106.898-50.883 20.952-74.4 67.559-86.8 106.898zM499.906 277.624c-44.811 23.603-46.892 43.471-42.331 50.455 11.117 18.387 7.269 32.497 56.442 18.387 49.172-14.111 116.304-32.497 158.636 14.11 42.331 46.608 0 100.912 54.731 99.629 54.732-1.283 71.835-52.166 60.29-89.794S637.59 159.609 609.369 153.622c-28.221-5.986-53.449 94.498-109.463 124.002z"/><path d="M271.145 316.534c13.341-10.262 35.49-29.361 44.897-37.628 12.4-10.897 69.698-24.372 94.07 37.628 40.798 103.785 80.387 80.387 118.015 63.284 37.628-17.104 118.015-49.173 129.56 0s22.235 63.283-26.938 99.628c-49.173 36.346-140.25-38.91-147.519 56.442-7.269 95.353 60.29 78.677 135.119 85.518 74.828 6.842 64.566-65.849 72.69-99.628 8.124-33.78 80.387-42.332 108.18-60.29 27.794-17.959 56.442-70.125 45.325-97.064-11.117-26.938-25.655-29.503-45.325-47.89-19.669-18.386-50.455-56.014-70.124-74.4-19.67-18.387-36.346-40.621-71.408-79.96-35.062-39.338-12.828-95.352-39.338-112.456-26.511-17.104-53.449 25.228-53.449 52.166 0 26.938-14.111 134.691-74.401 148.801-60.29 14.111-74.401-11.117-80.387-26.51s-9.834-62.001-19.669-122.291-43.187-76.111-61.573-92.787c-18.386-16.676-44.897-7.27-57.725 25.228-12.828 32.497-59.007 64.566-81.242 79.959-22.235 15.393-25.655 60.718-47.89 87.229-22.235 26.51-63.284 15.393-109.463 49.172-46.18 33.78-35.49 97.063-7.27 136.402 28.221 39.338 62.001 91.077 87.229 92.359 25.228 1.283 60.29-38.91 77.394-71.407 17.103-32.497 33.352-47.89 43.186-60.291 9.835-12.4 21.38-18.386 38.056-31.214z"/></g></svg>